<svg xmlns="http://www.w3.org/2000/svg" width="27.512" height="32" viewBox="0 0 27.512 32">
  <path id="Path_17573" data-name="Path 17573" d="M146.806,27.663A13.677,13.677,0,0,0,133.05,41.234v4c0,.082.032.16.039.241,0,.163-.039.316-.039.476h0a5.731,5.731,0,0,0,5.724,5.721,1.147,1.147,0,0,0,1.15-1.147V41.376a1.143,1.143,0,0,0-1.15-1.144,5.773,5.773,0,0,0-3.441,1.172v-.17a11.469,11.469,0,0,1,22.935,0v.17a5.747,5.747,0,0,0-3.441-1.172,1.148,1.148,0,0,0-1.147,1.144v9.147a1.151,1.151,0,0,0,1.147,1.147,5.875,5.875,0,0,0,2.3-.486,11.4,11.4,0,0,1-5.767,5.291,1.065,1.065,0,0,0,0-.241,1.14,1.14,0,0,0-1.136-1.143h-3.423a1.144,1.144,0,0,0-1.147,1.143v2.287a1.136,1.136,0,0,0,1.147,1.143,13.523,13.523,0,0,0,13.756-13.248V41.234a13.684,13.684,0,0,0-13.756-13.571ZM135.529,47.125a.71.71,0,0,1-1.42,0V45.587a4.923,4.923,0,0,1,4.439-4.534.71.71,0,1,1,.028,1.42,3.512,3.512,0,0,0-3.05,3.114Z" transform="translate(-133.05 -27.663)" fill="#1f2232"/>
</svg>
