<svg xmlns="http://www.w3.org/2000/svg" xmlns:xlink="http://www.w3.org/1999/xlink" width="30" height="30" viewBox="0 0 30 30">
  <defs>
    <clipPath id="clip-path">
      <rect id="Rectangle_1315" data-name="Rectangle 1315" width="24" height="24" transform="translate(1331 9186)" fill="#eee"/>
    </clipPath>
  </defs>
  <g id="Group_2935" data-name="Group 2935" transform="translate(-1328 -9183)">
    <rect id="Rectangle_1316" data-name="Rectangle 1316" width="30" height="30" transform="translate(1328 9183)" fill="none"/>
    <g id="Mask_Group_17" data-name="Mask Group 17" clip-path="url(#clip-path)">
      <g id="Group_2858" data-name="Group 2858" transform="translate(-1029.572 -1779.368)">
        <path id="Path_4851" data-name="Path 4851" d="M22.857,6.382H4.571A2.293,2.293,0,0,0,2.286,8.667V22.382a2.293,2.293,0,0,0,2.286,2.286H22.857a2.293,2.293,0,0,0,2.286-2.286V8.667a2.293,2.293,0,0,0-2.286-2.286Z" transform="translate(2358.857 10963.784)" stroke="#000" stroke-miterlimit="10" stroke-width="1.143"/>
        <circle id="Ellipse_132" data-name="Ellipse 132" cx="2.571" cy="2.571" r="2.571" transform="translate(2370 10973.311)" fill="#fff"/>
        <path id="Path_4852" data-name="Path 4852" d="M13.714,16.431c-1.883,0-5.577.914-5.577,3.031v1.527a.486.486,0,0,0,.486.486H18.8a.486.486,0,0,0,.486-.486V19.462C19.29,17.346,15.6,16.431,13.714,16.431Z" transform="translate(2358.857 10963.784)" fill="#fff"/>
        <path id="Path_4853" data-name="Path 4853" d="M5.574,5.493a1.486,1.486,0,0,1,1.371-.929H20.483a1.486,1.486,0,0,1,1.371.929h1.029a2.473,2.473,0,0,0-2.4-1.918H6.945a2.474,2.474,0,0,0-2.4,1.918Z" transform="translate(2358.857 10963.784)"/>
        <path id="Path_4854" data-name="Path 4854" d="M8.139,3A1.365,1.365,0,0,1,8.6,2.918H18.826A1.365,1.365,0,0,1,19.29,3h1.486a2.35,2.35,0,0,0-1.954-1.074H8.6A2.35,2.35,0,0,0,6.649,3Z" transform="translate(2358.857 10963.784)"/>
      </g>
    </g>
  </g>
</svg>
