<svg xmlns="http://www.w3.org/2000/svg" xmlns:xlink="http://www.w3.org/1999/xlink" width="28" height="28" viewBox="0 0 28 28">
  <defs>
    <clipPath id="clip-path">
      <rect id="_2d_result_icon.155421d" data-name="2d_result_icon.155421d" width="28" height="28" transform="translate(297 132)" fill="#081745" stroke="#707070" stroke-width="1"/>
    </clipPath>
  </defs>
  <g id="Mask_Group_13" data-name="Mask Group 13" transform="translate(-297 -132)" clip-path="url(#clip-path)">
    <g id="holidays" transform="translate(297 132)">
      <path id="Path_4865" data-name="Path 4865" d="M7.875,23.333h4.083a.875.875,0,1,0,0-1.75H8.75V21a1.169,1.169,0,0,1,1.167-1.167,2.917,2.917,0,1,0,0-5.833H7.875a.875.875,0,1,0,0,1.75H9.917a1.167,1.167,0,1,1,0,2.333A2.921,2.921,0,0,0,7,21v1.458A.875.875,0,0,0,7.875,23.333Z" fill="#aaa"/>
      <path id="Path_4866" data-name="Path 4866" d="M18.083,21.583H16.042a.875.875,0,1,0,0,1.75h2.042a2.917,2.917,0,1,0,0-5.833H16.917V15.75h3.208a.875.875,0,1,0,0-1.75H16.042a.875.875,0,0,0-.875.875v3.5a.875.875,0,0,0,.875.875h2.042a1.167,1.167,0,1,1,0,2.333Z" fill="#aaa"/>
      <path id="Path_4867" data-name="Path 4867" d="M24.5,3.5H23.333V1.167A1.167,1.167,0,0,0,22.167,0H21a1.167,1.167,0,0,0-1.167,1.167V3.5H8.167V1.167A1.167,1.167,0,0,0,7,0H5.833A1.167,1.167,0,0,0,4.667,1.167V3.5H3.5A3.5,3.5,0,0,0,0,7V24.5A3.5,3.5,0,0,0,3.5,28h21A3.5,3.5,0,0,0,28,24.5V7A3.5,3.5,0,0,0,24.5,3.5Zm1.167,21A1.169,1.169,0,0,1,24.5,25.667H3.5A1.169,1.169,0,0,1,2.333,24.5V11.713H25.667Z" fill="#aaa"/>
    </g>
  </g>
</svg>
