<svg xmlns="http://www.w3.org/2000/svg" xmlns:xlink="http://www.w3.org/1999/xlink" width="62" height="62" viewBox="0 0 62 62">
  <defs>
    <linearGradient id="linear-gradient" x1="0.5" x2="0.5" y2="1" gradientUnits="objectBoundingBox">
      <stop offset="0" stop-color="#ddbd4e"/>
      <stop offset="0" stop-color="#fef29a"/>
      <stop offset="0.108" stop-color="#f6cf37"/>
      <stop offset="1" stop-color="#ba8200"/>
    </linearGradient>
  </defs>
  <g id="Group_4609" data-name="Group 4609" transform="translate(-202 -498)">
    <g id="Ellipse_1" data-name="Ellipse 1" transform="translate(202 498)" fill="#fff" stroke="#e3e2df" stroke-width="1">
      <circle cx="31" cy="31" r="31" stroke="none"/>
      <circle cx="31" cy="31" r="30.5" fill="none"/>
    </g>
    <path id="noun-calendar-4461753" d="M145.115,54.654h-1.077V53.577a1.077,1.077,0,1,0-2.154,0v1.077h-4.308V53.577a1.077,1.077,0,1,0-2.154,0v1.077h-4.308V53.577a1.077,1.077,0,1,0-2.154,0v1.077h-1.077a5.391,5.391,0,0,0-5.385,5.385V75.116a5.391,5.391,0,0,0,5.385,5.385h17.231a5.391,5.391,0,0,0,5.385-5.385V60.039a5.391,5.391,0,0,0-5.385-5.385Zm-20.462,5.385a3.23,3.23,0,0,1,3.231-3.231h1.077v1.077a1.077,1.077,0,1,0,2.154,0V56.808h4.308v1.077a1.077,1.077,0,1,0,2.154,0V56.808h4.308v1.077a1.077,1.077,0,1,0,2.154,0V56.808h1.077a3.23,3.23,0,0,1,3.231,3.231v2.154H124.654Z" transform="translate(96.5 462.5)" fill="url(#linear-gradient)"/>
  </g>
</svg>
