<svg xmlns="http://www.w3.org/2000/svg" xmlns:xlink="http://www.w3.org/1999/xlink" width="28" height="28" viewBox="0 0 28 28">
  <defs>
    <clipPath id="clip-path">
      <rect id="Rectangle_20" data-name="Rectangle 20" width="28" height="28" transform="translate(21 0.136)" fill="#fff"/>
    </clipPath>
  </defs>
  <g id="Mask_Group_37" data-name="Mask Group 37" transform="translate(-21 -0.136)" clip-path="url(#clip-path)">
    <g id="gift-box" transform="translate(21 0.136)">
      <g id="Group_3828" data-name="Group 3828">
        <g id="Group_3824" data-name="Group 3824">
          <g id="Group_3814" data-name="Group 3814">
            <g id="Group_3813" data-name="Group 3813">
              <g id="Group_3812" data-name="Group 3812">
                <path id="Path_5068" data-name="Path 5068" d="M16.189,8.61a2.591,2.591,0,0,1-.89-.156,3,3,0,0,1-1.828-2.266,5.446,5.446,0,0,1,.251-3.006A5.447,5.447,0,0,1,15.462.717,3,3,0,0,1,18.319.156C20.05.786,20.743,3.1,19.9,5.429a5.447,5.447,0,0,1-1.74,2.465,3.266,3.266,0,0,1-1.967.717Zm1.236-6.085a.824.824,0,0,0-.431.2,2.95,2.95,0,0,0-.9,1.32,2.95,2.95,0,0,0-.161,1.589c.067.3.182.431.227.447s.217-.01.462-.2a2.95,2.95,0,0,0,.9-1.32c.417-1.146.111-1.971-.067-2.036a.094.094,0,0,0-.031,0Z" fill="#ff993a"/>
              </g>
            </g>
          </g>
          <g id="Group_3816" data-name="Group 3816">
            <g id="Group_3815" data-name="Group 3815">
              <path id="Path_5069" data-name="Path 5069" d="M19.9,5.429a5.446,5.446,0,0,1-1.74,2.465,3.267,3.267,0,0,1-1.967.717,2.59,2.59,0,0,1-.89-.156,3,3,0,0,1-1.828-2.266,4.993,4.993,0,0,1-.056-1.783,4.338,4.338,0,0,0,2.075.524q.207,0,.409-.019a2.332,2.332,0,0,0,.037.724c.067.3.182.43.227.447s.218-.01.462-.2a2.952,2.952,0,0,0,.9-1.32c.021-.057.039-.113.056-.167a4.365,4.365,0,0,0,2.188-2.974A4.9,4.9,0,0,1,19.9,5.429Z" fill="#f97c15"/>
            </g>
          </g>
          <g id="Group_3819" data-name="Group 3819">
            <g id="Group_3818" data-name="Group 3818">
              <g id="Group_3817" data-name="Group 3817">
                <path id="Path_5070" data-name="Path 5070" d="M10.274,7.9a5.447,5.447,0,0,1-1.74-2.465C7.688,3.111,8.38.795,10.111.165a3,3,0,0,1,2.857.561,5.447,5.447,0,0,1,1.74,2.465A5.446,5.446,0,0,1,14.959,6.2a3,3,0,0,1-1.828,2.266,2.591,2.591,0,0,1-.89.156A3.266,3.266,0,0,1,10.274,7.9Zm.7-5.364c-.178.065-.484.89-.067,2.036a2.95,2.95,0,0,0,.9,1.32c.244.186.416.213.462.2s.16-.147.227-.447a2.95,2.95,0,0,0-.161-1.589,2.95,2.95,0,0,0-.9-1.32.824.824,0,0,0-.431-.2.1.1,0,0,0-.031,0Z" fill="#ffaf40"/>
              </g>
            </g>
          </g>
          <g id="Group_3821" data-name="Group 3821">
            <g id="Group_3820" data-name="Group 3820">
              <path id="Path_5071" data-name="Path 5071" d="M13.824,1.581a4.747,4.747,0,0,0-.856-.855A3,3,0,0,0,10.111.165,3.3,3.3,0,0,0,8.174,3.456,1.247,1.247,0,0,0,9.763,4.647l.024-.007a1.255,1.255,0,0,0,.911-1.2c0-.524.165-.86.275-.9a.094.094,0,0,1,.031,0,.824.824,0,0,1,.431.2,2.221,2.221,0,0,1,.394.4,1.245,1.245,0,0,0,1.446.382L13.3,3.5a1.25,1.25,0,0,0,.524-1.923Z" fill="#ffc751"/>
            </g>
          </g>
          <g id="Group_3823" data-name="Group 3823">
            <g id="Group_3822" data-name="Group 3822">
              <path id="Path_5072" data-name="Path 5072" d="M8.249,2.616a4.746,4.746,0,0,0-.075.831,1.24,1.24,0,0,0,1.575,1.2l.038-.011a1.254,1.254,0,0,0,.911-1.2,2.334,2.334,0,0,1,.028-.348,1.27,1.27,0,0,0-.182-.9l-.014-.022a1.252,1.252,0,0,0-2.282.444Z" fill="#ffe059"/>
            </g>
          </g>
        </g>
        <g id="Group_3827" data-name="Group 3827">
          <g id="Group_3826" data-name="Group 3826">
            <path id="Path_5073" data-name="Path 5073" d="M25.517,28H2.483a.837.837,0,0,1-.837-.837V7.406H26.353V27.163a.837.837,0,0,1-.837.837Z" fill="#12adb5"/>
            <g id="Group_3825" data-name="Group 3825">
              <path id="Path_5074" data-name="Path 5074" d="M1.647,7.406H26.353v4.818H1.647Z" fill="#0d8ba0"/>
              <path id="Path_5075" data-name="Path 5075" d="M26.353,7.406V27.163a.837.837,0,0,1-.837.837H2.483a.837.837,0,0,1-.837-.837V23.514a14.57,14.57,0,0,0,22.1-16.108Z" fill="#0d8ba0"/>
            </g>
          </g>
          <path id="Path_5076" data-name="Path 5076" d="M26.366,10.8H1.634A.837.837,0,0,1,.8,9.965v-3.5a.837.837,0,0,1,.837-.837H26.366a.837.837,0,0,1,.837.837v3.5a.837.837,0,0,1-.837.837Z" fill="#3cd3d3"/>
          <path id="Path_5077" data-name="Path 5077" d="M19.767,5.627H5.7a1.29,1.29,0,0,0,0,2.58H19.767a1.29,1.29,0,1,0,0-2.58Z" fill="#57eae6"/>
          <path id="Path_5078" data-name="Path 5078" d="M9.3,5.627H7.5a1.29,1.29,0,0,0,0,2.58H9.3a1.29,1.29,0,0,0,0-2.58Z" fill="#a5f9f3"/>
          <path id="Path_5079" data-name="Path 5079" d="M11.345,7.406h5.31V28h-5.31Z" fill="#ffaf40"/>
          <path id="Path_5080" data-name="Path 5080" d="M11.345,7.406h5.31v4.818h-5.31Z" fill="#ff993a"/>
          <path id="Path_5081" data-name="Path 5081" d="M11.2,5.627h5.6V10.8H11.2Z" fill="#ffc751"/>
        </g>
      </g>
      <g id="Group_3829" data-name="Group 3829">
        <path id="Path_5082" data-name="Path 5082" d="M14.008,21.9V15.15a1.332,1.332,0,0,0-2.663,0V21.9a1.332,1.332,0,1,0,2.663,0Z" fill="#ffc751"/>
        <path id="Path_5083" data-name="Path 5083" d="M14.008,19.124V16.831a1.332,1.332,0,0,0-2.663,0v2.293a1.332,1.332,0,1,0,2.663,0Z" fill="#ffe059"/>
        <path id="Path_5084" data-name="Path 5084" d="M4.31,18.675V14.741a1.332,1.332,0,1,0-2.663,0v3.934a1.332,1.332,0,0,0,2.663,0Z" fill="#3cd3d3"/>
        <path id="Path_5085" data-name="Path 5085" d="M4.31,16.527v-.587a1.332,1.332,0,1,0-2.663,0v.587a1.332,1.332,0,0,0,2.663,0Z" fill="#57eae6"/>
      </g>
      <path id="Path_5086" data-name="Path 5086" d="M11.2,5.627h5.6V8.215H11.2Z" fill="#ffe059"/>
      <path id="Path_5087" data-name="Path 5087" d="M16.655,24.219V28h-5.31V25.878A14.456,14.456,0,0,0,16.655,24.219Z" fill="#ff993a"/>
      <path id="Path_5088" data-name="Path 5088" d="M26.353,15.908V27.163a.837.837,0,0,1-.837.837H17.31C22.917,26.513,25.556,21.764,26.353,15.908Z" fill="#02718c"/>
    </g>
  </g>
</svg>
