<svg id="Capa_1" enable-background="new 0 0 512 512" height="512" viewBox="0 0 512 512" width="512" xmlns="http://www.w3.org/2000/svg"><g><path d="m343.411 15.266h-23.862c-1.499 0-1.691 0-5.125-3.359-4.554-4.453-12.174-11.907-26.09-11.907s-21.535 7.454-26.088 11.907c-3.434 3.359-3.627 3.359-5.125 3.359-1.497 0-1.69 0-5.123-3.358-4.552-4.454-12.172-11.908-26.087-11.908s-21.535 7.454-26.088 11.908c-3.433 3.358-3.625 3.358-5.123 3.358h-23.357l22.707 49.556h125.483z"/><path d="m328.377 392.127 53.904-89.924c5.993-9.998 15.362-17.427 26.135-21.17l3.003-56.366c-21.651-30.43-52.312-51.219-89.216-69.795h-131.73c-37.191 18.545-68.1 39.365-89.881 70.027l2.991 56.134c10.773 3.744 20.142 11.173 26.135 21.17l53.904 89.924c12.77 19.963 18.391 43.014 16.548 66.072 17.842 5.994 36.673 9.121 55.606 9.121 19.101 0 38.073-3.178 56.041-9.27-1.806-23.008 3.818-46.003 16.56-65.923zm-60.354-53.461v16.477h-20.931v-15.735c-14.844-.891-29.244-4.899-38.15-10.391l11.281-25.533c9.798 5.79 22.861 9.5 34.291 9.5 9.946 0 13.508-2.078 13.508-5.641 0-13.063-57.448-2.524-57.448-41.268 0-16.774 12.172-30.876 36.517-34.291v-16.18h20.931v15.883c10.985 1.039 21.673 3.86 30.134 8.61l-10.539 25.384c-10.243-5.196-19.892-7.719-28.947-7.719-10.243 0-13.509 2.969-13.509 6.531 0 12.47 57.448 2.078 57.448 40.377.002 16.035-11.577 29.988-34.586 33.996z"/><path d="m205.449 94.822h102.024v30.05h-102.024z"/><path d="m159.09 407.593-.274-.443-53.971-90.037c-5.819-9.708-18.485-12.727-28.058-6.688-9.257 5.84-12.166 17.996-6.556 27.394l51.053 85.524-25.82 15.275-50.718-85.728c-7.046-11.109-9.245-24.309-6.188-37.205 3.12-13.163 11.67-24.709 23.457-31.677 3.988-2.357 8.159-4.104 12.403-5.293l-5.43-101.909c-.97-18.208-16.016-32.474-34.25-32.474-18.906 0-34.247 15.299-34.298 34.206l-.44 162.919 68.224 117.408-19.992 53.135h100.333l18.055-34.867c8.537-23.497 5.809-48.795-7.53-69.54z"/><path d="m512 341.457-.441-162.918c-.051-18.906-15.392-34.206-34.298-34.206-18.233 0-33.28 14.266-34.25 32.474l-5.43 101.909c4.244 1.188 8.415 2.935 12.403 5.293 11.787 6.968 20.337 18.514 23.457 31.677 3.057 12.896.858 26.096-6.188 37.205l-50.717 85.728-25.82-15.275 51.053-85.524c5.61-9.398 2.7-21.554-6.556-27.394-9.572-6.039-22.239-3.019-28.058 6.688l-53.971 90.037-.274.443c-13.339 20.745-16.067 46.043-7.53 69.54l18.055 34.866h100.333l-19.992-53.135z"/></g></svg>