<svg xmlns="http://www.w3.org/2000/svg" xmlns:xlink="http://www.w3.org/1999/xlink" width="62" height="62" viewBox="0 0 62 62">
  <defs>
    <linearGradient id="linear-gradient" x1="0.5" x2="0.5" y2="1" gradientUnits="objectBoundingBox">
      <stop offset="0" stop-color="#ddbd4e"/>
      <stop offset="0" stop-color="#fef29a"/>
      <stop offset="0.108" stop-color="#f6cf37"/>
      <stop offset="1" stop-color="#ba8200"/>
    </linearGradient>
  </defs>
  <g id="Group_4613" data-name="Group 4613" transform="translate(-21 -498)">
    <g id="Group_4326" data-name="Group 4326" transform="translate(0 250)">
      <g id="Ellipse_1" data-name="Ellipse 1" transform="translate(21 248)" fill="#fff" stroke="#e3e2df" stroke-width="1">
        <circle cx="31" cy="31" r="31" stroke="none"/>
        <circle cx="31" cy="31" r="30.5" fill="none"/>
      </g>
    </g>
    <g id="noun-file-4804946" transform="translate(-104.832 485.832)">
      <path id="Path_18030" data-name="Path 18030" d="M421.96,37.27a2.287,2.287,0,0,0-.651-1.4l-5.744-5.748a2.288,2.288,0,0,0-1.4-.651v7.471a.326.326,0,0,0,.326.326Z" transform="translate(-253.358 -0.288)" fill="url(#linear-gradient)"/>
      <path id="Path_18031" data-name="Path 18031" d="M149.413,29.168a3.579,3.579,0,0,0-3.581,3.581V53.587a3.579,3.579,0,0,0,3.581,3.581h15.628a3.579,3.579,0,0,0,3.581-3.581V38.936h-7.489a2.289,2.289,0,0,1-2.279-2.279V29.168Zm2.6,10.419h5.209a.977.977,0,1,1,0,1.953h-5.209a.977.977,0,1,1,0-1.953Zm10.419,12.372H152.018a.977.977,0,1,1,0-1.953h10.419a.977.977,0,1,1,0,1.953Zm0-7.163h0a.977.977,0,1,1,0,1.953H152.019a.977.977,0,1,1,0-1.953Z" fill="url(#linear-gradient)"/>
    </g>
  </g>
</svg>
