<svg xmlns="http://www.w3.org/2000/svg" xmlns:xlink="http://www.w3.org/1999/xlink" width="62" height="62" viewBox="0 0 62 62">
  <defs>
    <linearGradient id="linear-gradient" x1="0.5" x2="0.5" y2="1" gradientUnits="objectBoundingBox">
      <stop offset="0" stop-color="#ddbd4e"/>
      <stop offset="0" stop-color="#fef29a"/>
      <stop offset="0.108" stop-color="#f6cf37"/>
      <stop offset="1" stop-color="#ba8200"/>
    </linearGradient>
  </defs>
  <g id="Group_4612" data-name="Group 4612" transform="translate(-111 -498)">
    <g id="Group_4327" data-name="Group 4327" transform="translate(90 250)">
      <g id="Ellipse_1" data-name="Ellipse 1" transform="translate(21 248)" fill="#fff" stroke="#e3e2df" stroke-width="1">
        <circle cx="31" cy="31" r="31" stroke="none"/>
        <circle cx="31" cy="31" r="30.5" fill="none"/>
      </g>
    </g>
    <g id="Group_4611" data-name="Group 4611" transform="translate(855.819 -4156)">
      <path id="Path_18028" data-name="Path 18028" d="M167.264,124.673a2.67,2.67,0,0,0-3.112-.081l-4.8,3.193a.894.894,0,0,1-1.335-.406l-3.924-9.516a2.672,2.672,0,0,0-2.436-1.669,2.706,2.706,0,0,0-2.517,1.551l-4.6,9.778h0a.872.872,0,0,1-.559.478.927.927,0,0,1-.74-.1l-4-2.544a2.706,2.706,0,0,0-4.032,3.1l4.4,13.846a2.705,2.705,0,0,0,2.58,1.885h19a2.686,2.686,0,0,0,2.589-1.921l4.456-14.64h0a2.678,2.678,0,0,0-.974-2.959Zm-6.621,13.585a.9.9,0,0,1-.821.523.92.92,0,0,1-.379-.081,18.4,18.4,0,0,0-4.366-1.4,3.58,3.58,0,0,1-6.747,0,18.4,18.4,0,0,0-4.366,1.4.92.92,0,0,1-.379.081.9.9,0,0,1-.821-.523.911.911,0,0,1,.442-1.2,20.055,20.055,0,0,1,4.943-1.551,3.6,3.6,0,0,1,7.108,0,19.935,19.935,0,0,1,4.943,1.551.911.911,0,0,1,.442,1.2Z" transform="translate(-865.906 4554.807)" fill="url(#linear-gradient)"/>
      <path id="Path_18029" data-name="Path 18029" d="M330.274,351.8a1.8,1.8,0,1,1-1.8-1.8,1.8,1.8,0,0,1,1.8,1.8" transform="translate(-1042.672 4339.08)" fill="url(#linear-gradient)"/>
    </g>
  </g>
</svg>
