<svg xmlns="http://www.w3.org/2000/svg" width="50.749" height="53.998" viewBox="0 0 50.749 53.998">
  <g id="file-5" transform="translate(-6.505 -5.001)">
    <path id="Path_4725" data-name="Path 4725" d="M16.069,50.515a1.08,1.08,0,0,1-.382-.07L12.07,49.08a4.472,4.472,0,0,1-2.588-5.758l5.577-14.806a1.08,1.08,0,0,1,2.021.761L11.5,44.087a2.309,2.309,0,0,0,1.335,2.973l3.614,1.365a1.08,1.08,0,0,1-.382,2.09Zm21.11-39.757a1.074,1.074,0,0,1-.381-.07L27.812,7.3A2.309,2.309,0,0,0,24.85,8.65l-.537,1.412a1.08,1.08,0,1,1-2.019-.768l.537-1.412a4.481,4.481,0,0,1,5.742-2.6L37.56,8.668a1.08,1.08,0,0,1-.381,2.09ZM39.231,59a4.444,4.444,0,0,1-1.585-.293l-8.992-3.382a1.079,1.079,0,0,1,.759-2.021l9,3.383a2.288,2.288,0,0,0,2.962-1.338l.539-1.419a1.08,1.08,0,0,1,2.019.768l-.537,1.412A4.452,4.452,0,0,1,39.231,59ZM50.155,36.2a1.08,1.08,0,0,1-1.01-1.461L54.734,19.9a2.3,2.3,0,0,0-1.339-2.961l-3.621-1.366a1.08,1.08,0,1,1,.761-2.021l3.618,1.365a4.465,4.465,0,0,1,2.6,5.741L51.165,35.5A1.08,1.08,0,0,1,50.155,36.2Z" transform="translate(0.215)" fill="#fff"/>
    <path id="Path_4726" data-name="Path 4726" d="M46.347,55.13H19.023a4.465,4.465,0,0,1-4.46-4.46V22.924a1.08,1.08,0,0,1,2.16,0V50.669a2.3,2.3,0,0,0,2.3,2.3H46.347a2.3,2.3,0,0,0,2.3-2.3V12.793a2.3,2.3,0,0,0-2.3-2.3H19.023a2.3,2.3,0,0,0-2.3,2.3v.918a1.08,1.08,0,0,1-2.16,0v-.918a4.465,4.465,0,0,1,4.46-4.46H46.347a4.465,4.465,0,0,1,4.46,4.46V50.669A4.465,4.465,0,0,1,46.347,55.13Z" transform="translate(0.645 0.267)" fill="#fff"/>
    <path id="Path_4727" data-name="Path 4727" d="M43.459,21.388H22.442a1.08,1.08,0,0,1,0-2.16H43.459a1.08,1.08,0,1,1,0,2.16Zm0,10.989H32.251a1.08,1.08,0,1,1,0-2.16H43.459a1.08,1.08,0,1,1,0,2.16Zm0-5.495H27.734a1.08,1.08,0,0,1,0-2.16H43.459a1.08,1.08,0,1,1,0,2.16Zm0,10.989H21.042a1.08,1.08,0,1,1,0-2.16H43.459a1.08,1.08,0,1,1,0,2.16Zm0,5.494H21.042a1.08,1.08,0,0,1,0-2.16H43.459a1.08,1.08,0,1,1,0,2.16Zm0-27.47H21.042a1.08,1.08,0,0,1,0-2.16H43.459a1.08,1.08,0,1,1,0,2.16Zm0,32.965H21.042a1.08,1.08,0,0,1,0-2.16H43.459a1.08,1.08,0,1,1,0,2.16Z" transform="translate(1.077 0.699)" fill="#e7e5ea"/>
    <path id="Path_4728" data-name="Path 4728" d="M27.74,35.444a1.077,1.077,0,0,1-.764-.316L7.429,15.579a3.164,3.164,0,0,1,0-4.47L9.093,9.446a3.163,3.163,0,0,1,4.47,0L33.111,28.993a1.08,1.08,0,0,1,0,1.527L28.5,35.127A1.076,1.076,0,0,1,27.74,35.444ZM11.329,10.68a1,1,0,0,0-.709.293L8.957,12.637a1,1,0,0,0,0,1.415L27.74,32.836l3.08-3.08L12.036,10.973A1,1,0,0,0,11.329,10.68Z" transform="translate(0 0.282)" fill="#ffea72"/>
    <path id="Path_4729" data-name="Path 4729" d="M10.7,18.4a1.08,1.08,0,0,1-.764-1.844l4.607-4.607a1.08,1.08,0,1,1,1.527,1.527l-4.607,4.607A1.077,1.077,0,0,1,10.7,18.4Zm24.238,19.64a1.091,1.091,0,0,1-.386-.071l-7.442-2.845a1.081,1.081,0,1,1,.772-2.019l5.189,1.984-1.978-5.2a1.08,1.08,0,1,1,2.019-.768l2.835,7.451a1.079,1.079,0,0,1-1.009,1.464Z" transform="translate(0.249 0.53)" fill="#ffea72"/>
  </g>
</svg>
