<svg xmlns="http://www.w3.org/2000/svg" xmlns:xlink="http://www.w3.org/1999/xlink" width="90.171" height="97.712" viewBox="0 0 90.171 97.712">
  <defs>
    <linearGradient id="linear-gradient" x1="0.5" x2="0.5" y2="1" gradientUnits="objectBoundingBox">
      <stop offset="0" stop-color="#fdd164"/>
      <stop offset="1" stop-color="#bb8834"/>
    </linearGradient>
  </defs>
  <g id="Group_3113" data-name="Group 3113" transform="translate(-144.588 -364.403)">
    <path id="Path_4941" data-name="Path 4941" d="M63.5,30.323a1.643,1.643,0,0,0-.126-.212l-.086-.066a1.65,1.65,0,0,0-.159-.166l-.046-.046L56.139,24.08V21.044a6.966,6.966,0,0,0-6.959-6.959h-5.1L38.556,9.5a4.315,4.315,0,0,0-5.488,0l-5.527,4.566h-5.1a6.966,6.966,0,0,0-6.959,6.959V24.08L8.533,29.8l-.046.046a1.657,1.657,0,0,0-.159.166l-.08.093a1.657,1.657,0,0,0-.126.212l-.046.086a1.644,1.644,0,0,0-.146.663v25.49a6.966,6.966,0,0,0,6.959,6.959h41.84a6.966,6.966,0,0,0,6.959-6.959V31.078a1.65,1.65,0,0,0-.146-.663Zm-7.363-1.988,3.214,2.651-3.214,2.4ZM35.15,12.077a.994.994,0,0,1,1.266,0l2.432,1.988h-6.1ZM31.007,30.144h3.148V27a1.657,1.657,0,1,1,3.314,0v3.148h3.148a1.657,1.657,0,0,1,0,3.314H37.469v3.148a1.657,1.657,0,0,1-3.314,0V33.458H31.007a1.657,1.657,0,1,1,0-3.314ZM15.485,28.354v5.057l-3.214-2.4Zm44.889,28.2A3.652,3.652,0,0,1,56.729,60.2H14.9a3.652,3.652,0,0,1-3.645-3.645V34.379l4.639,3.446a1.65,1.65,0,0,0,.663.484L33.234,50.776a4.334,4.334,0,0,0,5.15,0l16.721-12.46a1.65,1.65,0,0,0,.663-.484l4.639-3.446Z" transform="translate(171.07 398.601)" fill="url(#linear-gradient)"/>
    <g id="Group_3112" data-name="Group 3112" transform="translate(954.888 -6702.597)">
      <path id="Path_4942" data-name="Path 4942" d="M44.661,19.38a1.79,1.79,0,1,0-1.773-1.8,1.79,1.79,0,0,0,1.773,1.8ZM9.546,35.8A1.79,1.79,0,1,0,7.773,34a1.79,1.79,0,0,0,1.773,1.8ZM17.475,52.8a1.79,1.79,0,1,0-1.773-1.8,1.79,1.79,0,0,0,1.773,1.8Zm12.913-12.6a7.459,7.459,0,1,0,0,.006ZM46.145,13.45,56.492,35.635c-1.059.5-2.05,1.008-3.081,1.416a1.133,1.133,0,0,1-.776-.476,7.176,7.176,0,0,0-12.653,5.981.736.736,0,0,1-.453,1.019q-11.5,5.3-22.978,10.7c-.147.068-.3.113-.521.193L5.7,32.31Z" transform="translate(-816 7053.55)" fill="#081745"/>
      <path id="Path_4943" data-name="Path 4943" d="M71.05,58.832a4.259,4.259,0,0,1,4.242-4.282,4.3,4.3,0,0,1,4.321,4.3,4.361,4.361,0,0,1-4.259,4.3,4.31,4.31,0,0,1-4.3-4.327Z" transform="translate(-844.338 7035.728)" fill="#081745"/>
      <path id="Path_4944" data-name="Path 4944" d="M70.514,75.631a3.857,3.857,0,1,1-3.84-3.851A3.857,3.857,0,0,1,70.514,75.631Z" transform="translate(-840.76 7028.256)" fill="#081745"/>
    </g>
  </g>
</svg>
