<svg xmlns="http://www.w3.org/2000/svg" width="150" height="150" viewBox="0 0 150 150">
  <g id="Group_3076" data-name="Group 3076" transform="translate(-132 -144)">
    <g id="Ellipse_138" data-name="Ellipse 138" transform="translate(132 144)" fill="#081745" stroke="#707070" stroke-width="1" opacity="0.078">
      <circle cx="75" cy="75" r="75" stroke="none"/>
      <circle cx="75" cy="75" r="74.5" fill="none"/>
    </g>
    <g id="Group_2968" data-name="Group 2968" transform="translate(-2959.908 -5760)">
      <path id="Path_4871" data-name="Path 4871" d="M13.742,77.419a1.223,1.223,0,0,0,1.222,1.222H31.959V52.934H13.742Z" transform="translate(3131.12 5928.359)" fill="#081745"/>
      <path id="Path_4872" data-name="Path 4872" d="M56.448,78.641H73.443a1.223,1.223,0,0,0,1.222-1.222V52.934H56.448Z" transform="translate(3114.512 5928.359)" fill="#081745"/>
      <path id="Path_4873" data-name="Path 4873" d="M57.909,20.607H42.889c2.611-.966,5.153-2.378,6.576-4.43a6.621,6.621,0,0,0,.947-5.646,7.455,7.455,0,0,0-9.137-5.275c-3.453.926-5.795,4.926-7.255,8.573-1.459-3.648-3.8-7.647-7.254-8.573a7.454,7.454,0,0,0-9.137,5.276,6.616,6.616,0,0,0,.947,5.645c1.423,2.052,3.965,3.464,6.576,4.43H10.13a1.223,1.223,0,0,0-1.222,1.222V31.1a1.223,1.223,0,0,0,1.222,1.222H30.079V21.264H37.96V32.322H57.909A1.223,1.223,0,0,0,59.132,31.1V21.829A1.223,1.223,0,0,0,57.909,20.607Zm-36.1-6.676a2.655,2.655,0,0,1-.379-2.38,3.518,3.518,0,0,1,4.311-2.49c2.291.614,4.415,5.085,5.635,9.154C28.044,17.565,23.392,16.209,21.813,13.931Zm14.853,4.294c1.129-3.74,3.19-8.509,5.628-9.163A3.515,3.515,0,0,1,46.6,11.55a2.655,2.655,0,0,1-.377,2.38C44.75,16.065,40.334,17.514,36.666,18.224Z" transform="translate(3133 5947)" fill="#081745"/>
    </g>
    <path id="Path_4875" data-name="Path 4875" d="M8.525,48.757,5,54.862h7.05Z" transform="translate(212.189 121.882)" fill="#fff"/>
    <path id="Path_4876" data-name="Path 4876" d="M86.7,17.965a3.072,3.072,0,0,0-.33,2.63c.057.208.121.4.179.576.242.715.279.933.1,1.209s-.392.331-1.144.4c-.182.017-.386.038-.6.071a3.042,3.042,0,0,0-2.6,4c.057.208.122.4.18.576.242.715.28.931.1,1.207s-.391.33-1.143.4c-.182.017-.386.038-.6.07a3.065,3.065,0,0,0-2.266,1.371,1.154,1.154,0,1,0,1.936,1.257c.179-.275.392-.329,1.143-.4a3.18,3.18,0,0,0,3.016-4.647c-.242-.715-.28-.931-.1-1.207s.393-.331,1.145-.4a3.42,3.42,0,0,0,2.866-1.444,3.422,3.422,0,0,0,.151-3.206c-.242-.715-.279-.933-.1-1.209A1.155,1.155,0,0,0,86.7,17.965Z" transform="translate(157.161 159.255)" fill="#081745"/>
    <path id="Path_4877" data-name="Path 4877" d="M87.76,74.9,87,74.148l-1.4,1.4-1.4-1.4-.757.757-.757.757,1.4,1.4-1.4,1.4.757.757.757.757,1.4-1.4,1.4,1.4.757-.757.757-.757-1.4-1.4,1.4-1.4Z" transform="translate(156.156 162.753)" fill="#081745"/>
    <path id="Path_4878" data-name="Path 4878" d="M14.661,74.709H12.41v2.076H10.335v2.25H12.41V81.11h2.25V79.035h2.075v-2.25H14.661Z" transform="translate(152.904 162.883)" fill="#081745"/>
    <circle id="Ellipse_139" data-name="Ellipse 139" cx="3.083" cy="3.083" r="3.083" transform="translate(243.158 205.579)" fill="#fff"/>
    <path id="Path_4881" data-name="Path 4881" d="M18.171,21.934A2.834,2.834,0,1,0,21,24.767,2.837,2.837,0,0,0,18.171,21.934Zm0,4.079a1.245,1.245,0,1,1,1.245-1.245A1.246,1.246,0,0,1,18.171,26.013Z" transform="translate(162.604 148.705)" fill="#081745"/>
    <circle id="Ellipse_140" data-name="Ellipse 140" cx="2.083" cy="2.083" r="2.083" transform="translate(171.158 220.579)" fill="#fff"/>
    <path id="Path_4882" data-name="Path 4882" d="M86.7,17.965a3.072,3.072,0,0,0-.33,2.63c.057.208.121.4.179.576.242.715.279.933.1,1.209s-.392.331-1.144.4c-.182.017-.386.038-.6.071a3.042,3.042,0,0,0-2.6,4c.057.208.122.4.18.576.242.715.28.931.1,1.207s-.391.33-1.143.4c-.182.017-.386.038-.6.07a3.065,3.065,0,0,0-2.266,1.371,1.154,1.154,0,1,0,1.936,1.257c.179-.275.392-.329,1.143-.4a3.18,3.18,0,0,0,3.016-4.647c-.242-.715-.28-.931-.1-1.207s.393-.331,1.145-.4a3.42,3.42,0,0,0,2.866-1.444,3.422,3.422,0,0,0,.151-3.206c-.242-.715-.279-.933-.1-1.209A1.155,1.155,0,0,0,86.7,17.965Z" transform="translate(203.541 120.29) rotate(99)" fill="#081745"/>
    <path id="Path_4883" data-name="Path 4883" d="M18.171,21.934A2.834,2.834,0,1,0,21,24.767,2.837,2.837,0,0,0,18.171,21.934Zm0,4.079a1.245,1.245,0,1,1,1.245-1.245A1.246,1.246,0,0,1,18.171,26.013Z" transform="translate(238.604 199.705)" fill="#081745"/>
  </g>
</svg>
