<svg xmlns="http://www.w3.org/2000/svg" width="27.429" height="24" viewBox="0 0 27.429 24">
  <path id="gift-solid" d="M1.714,54.286A1.712,1.712,0,0,0,3.429,56H12V47.429H1.714ZM15.429,56H24a1.712,1.712,0,0,0,1.714-1.714V47.429H15.429ZM25.714,38.857H23.459A4.671,4.671,0,0,0,24,36.714,4.721,4.721,0,0,0,19.286,32c-2.229,0-3.67,1.141-5.518,3.659C11.92,33.141,10.479,32,8.25,32a4.721,4.721,0,0,0-4.714,4.714,4.605,4.605,0,0,0,.541,2.143H1.714A1.712,1.712,0,0,0,0,40.571v4.286a.86.86,0,0,0,.857.857H26.571a.86.86,0,0,0,.857-.857V40.571A1.712,1.712,0,0,0,25.714,38.857Zm-17.47,0a2.143,2.143,0,1,1,0-4.286c1.066,0,1.854.177,4.613,4.286Zm11.041,0H14.673c2.754-4.1,3.52-4.286,4.613-4.286a2.143,2.143,0,0,1,0,4.286Z" transform="translate(0 -32)" fill="#000"/>
</svg>
