<svg xmlns="http://www.w3.org/2000/svg" width="17" height="17" viewBox="0 0 17 17">
  <path id="football-5" d="M9.029,289.063a8.5,8.5,0,1,0,8.5,8.5,8.509,8.509,0,0,0-8.5-8.5Zm2.8,1.772a7.281,7.281,0,0,1,2.731,1.989l-.819,2.57-1.7.551-2.408-1.729v-1.806Zm-5.6,0,2.195,1.575v1.806l-2.408,1.728-1.7-.551-.819-2.57a7.279,7.279,0,0,1,2.73-1.987Zm-2.286,5.712,1.685.548.95,2.812-1.067,1.468-2.693-.016a7.238,7.238,0,0,1-1.042-3.217Zm10.177,0,2.168,1.594a7.238,7.238,0,0,1-1.042,3.218l-2.693.016-1.067-1.468.95-2.812ZM7.574,300.6h2.91l1.083,1.491-.847,2.554a7.073,7.073,0,0,1-3.382,0l-.847-2.554Z" transform="translate(-0.529 -289.063)" fill="#2196f3"/>
</svg>
