<svg id="group-24px" xmlns="http://www.w3.org/2000/svg" width="28" height="28" viewBox="0 0 28 28">
  <path id="Path_4890" data-name="Path 4890" d="M0,0H28V28H0Z" fill="none"/>
  <path id="Path_4891" data-name="Path 4891" d="M18.5,12A3.5,3.5,0,1,0,15,8.5,3.485,3.485,0,0,0,18.5,12ZM9.167,12a3.5,3.5,0,1,0-3.5-3.5A3.485,3.485,0,0,0,9.167,12Zm0,2.333C6.448,14.333,1,15.7,1,18.417v1.75a1.17,1.17,0,0,0,1.167,1.167h14a1.17,1.17,0,0,0,1.167-1.167v-1.75C17.333,15.7,11.885,14.333,9.167,14.333Zm9.333,0c-.338,0-.723.023-1.132.058.023.012.035.035.047.047a4.853,4.853,0,0,1,2.252,3.978v1.75a3.505,3.505,0,0,1-.21,1.167H25.5a1.17,1.17,0,0,0,1.167-1.167v-1.75C26.667,15.7,21.218,14.333,18.5,14.333Z" transform="translate(0.167 0.833)" fill="#081745"/>
</svg>
