<svg xmlns="http://www.w3.org/2000/svg" xmlns:xlink="http://www.w3.org/1999/xlink" width="92.919" height="80" viewBox="0 0 92.919 80">
  <defs>
    <linearGradient id="linear-gradient" x1="0.5" x2="0.5" y2="1" gradientUnits="objectBoundingBox">
      <stop offset="0" stop-color="#fdd164"/>
      <stop offset="1" stop-color="#bb8834"/>
    </linearGradient>
  </defs>
  <g id="Group_3108" data-name="Group 3108" transform="translate(-179 -411.41)">
    <g id="Group_3106" data-name="Group 3106" transform="translate(179 411.41)">
      <path id="Path_4933" data-name="Path 4933" d="M26.5,18.024H41.274A11.648,11.648,0,0,0,45.553,9V4.334a2.335,2.335,0,0,0-3.378-2.087q-.243.122-.489.236L41.65,2.5a18.345,18.345,0,0,1-2.487.935l-.024.007q-.762.224-1.537.382l-.1.019c-.142.027-.284.055-.426.08h0a18.936,18.936,0,0,1-3.189.271h0a18.553,18.553,0,0,1-8.291-1.947,2.333,2.333,0,0,0-3.377,2.087V9A11.643,11.643,0,0,0,26.5,18.024Z" transform="translate(-3.548 -2.001)" fill="#081745"/>
      <path id="Path_4934" data-name="Path 4934" d="M62.571,56.794V43.171A25.714,25.714,0,0,0,43.766,18.435H30.038A25.716,25.716,0,0,0,11.232,43.171V56.794a7,7,0,0,0,2.334,13.6H60.237a7,7,0,0,0,2.334-13.6ZM36.9,43.637c.358.187.731.389,1.089.576,2.5,1.318,5.448,2.882,6.769,5.413a6.12,6.12,0,0,1,.7,2.879,8.59,8.59,0,0,1-6.222,8.23v1.1a2.334,2.334,0,1,1-4.668,0v-1.1a8.59,8.59,0,0,1-6.222-8.23,2.334,2.334,0,1,1,4.668,0,3.889,3.889,0,1,0,7.779,0,.3.3,0,0,0-.016-.124c-.109-1.244-1.882-2.365-3.858-3.439a.017.017,0,0,0-.017-.016c-.358-.187-.731-.389-1.089-.576-3.329-1.758-7.468-3.951-7.468-8.292a8.59,8.59,0,0,1,6.222-8.23v-1.1a2.333,2.333,0,0,1,4.666-.039c0,.013,0,.026,0,.039v1.1a8.6,8.6,0,0,1,6.222,8.23c0,.012,0,.025,0,.037a2.333,2.333,0,0,1-4.666-.038c0-.067,0-.134,0-.2a3.89,3.89,0,0,0-7.774.2C33.012,41.351,34.848,42.517,36.9,43.637Z" transform="translate(-6.565 1.167)" fill="#081745"/>
    </g>
    <g id="Group_3107" data-name="Group 3107" transform="translate(224.766 446.74)">
      <path id="Path_4936" data-name="Path 4936" d="M325.139,191.2l29.056-5.252c.02,0,.02-.02.039-.02,0-.02.02-.02,0-.039l-.275-1.318a.819.819,0,0,0-.334-.492,1.2,1.2,0,0,0-.964-.1L325.139,191.1c-.02,0-.039.039-.039.059A.042.042,0,0,0,325.139,191.2Z" transform="translate(-320.497 -183.927)" fill="url(#linear-gradient)"/>
      <path id="Path_4937" data-name="Path 4937" d="M348.776,248.7l-6.551-25.633s-.275-1.633-3.167-1.377l-35.036,2.636s-2.754.275-2.262,3.443l4.387,28.583s.2,2.557,3.8,2.557c3.62,0,32.656-2.97,33.521-3.088s2.636-.885,2.557-2.557l-.216-2.184,1.377-.157C348.225,250.784,349.13,250.272,348.776,248.7Zm-4.761,4.367a2.878,2.878,0,0,1-2.085,1.082l-31.495,3.089a2.355,2.355,0,0,1-1.377-.334.834.834,0,0,1-.334-.61.791.791,0,0,1,.2-.61c.59-.708,2.262-.826,2.341-.846l32.951-3.6c.02,0,.039.02.059.039A2.124,2.124,0,0,1,344.015,253.066Z" transform="translate(-301.701 -214.239)" fill="url(#linear-gradient)"/>
      <path id="Path_4938" data-name="Path 4938" d="M343.6,206.038a.042.042,0,0,0,.039.039l27.777-2.066c.02,0,.02,0,.039-.02,0-.02.02-.02,0-.039l-.393-1.869a.958.958,0,0,0-.216-.472,1.83,1.83,0,0,0-1.475-.216l-25.731,4.584C343.62,205.979,343.6,206,343.6,206.038Z" transform="translate(-335.358 -197.919)" fill="url(#linear-gradient)"/>
    </g>
  </g>
</svg>
