<svg xmlns="http://www.w3.org/2000/svg" width="21.81" height="23" viewBox="0 0 21.81 23">
  <path id="viber-brands" d="M32.54,2.277c-.57-.526-2.879-2.2-8.027-2.223,0,0-6.068-.364-9.024,2.349C13.846,4.047,13.266,6.459,13.2,9.446s-.139,8.583,5.255,10.1h0l0,2.318s-.036.939.584,1.127c.746.234,1.186-.481,1.9-1.249.391-.422.93-1.042,1.339-1.514a20.872,20.872,0,0,0,6.85-.5c.746-.243,4.963-.782,5.646-6.378.71-5.776-.341-9.423-2.237-11.072Zm.624,10.65c-.579,4.671-4,4.968-4.626,5.17a19.311,19.311,0,0,1-5.893.5s-2.336,2.816-3.063,3.548c-.238.238-.5.216-.494-.256,0-.31.018-3.849.018-3.849h0c-4.572-1.267-4.3-6.032-4.254-8.525s.521-4.537,1.913-5.911c2.5-2.268,7.654-1.931,7.654-1.931,4.352.018,6.436,1.33,6.922,1.77,1.6,1.374,2.421,4.662,1.824,9.482ZM26.921,9.3a.29.29,0,1,1-.579.027A1.389,1.389,0,0,0,24.877,7.8a.29.29,0,0,1,.031-.579A1.953,1.953,0,0,1,26.921,9.3Zm.912.508a3.356,3.356,0,0,0-3.4-3.562.29.29,0,0,1,.04-.579,3.934,3.934,0,0,1,3.944,4.155.29.29,0,0,1-.579-.013Zm2.111.6a.29.29,0,0,1-.579,0c-.027-3.661-2.466-5.655-5.426-5.677a.29.29,0,0,1,0-.579C27.249,4.177,29.912,6.464,29.944,10.407Zm-.508,4.406v.009c-.485.853-1.392,1.8-2.327,1.5L27.1,16.3a17.265,17.265,0,0,1-4.59-2.538,11.742,11.742,0,0,1-1.9-1.9,14.575,14.575,0,0,1-1.383-2.093,13.421,13.421,0,0,1-1.168-2.5c-.3-.934.638-1.842,1.5-2.327h.009a.818.818,0,0,1,1.073.175s.557.665.8.993c.225.305.526.8.683,1.069a.938.938,0,0,1-.166,1.195l-.539.431a.79.79,0,0,0-.238.629,5.624,5.624,0,0,0,3.786,3.786.79.79,0,0,0,.629-.238l.431-.539a.938.938,0,0,1,1.195-.166,11.638,11.638,0,0,1,2.057,1.478.8.8,0,0,1,.171,1.06Z" transform="translate(-13.19 -0.038)" fill="#fff"/>
</svg>
