<svg xmlns="http://www.w3.org/2000/svg" width="28" height="28" viewBox="0 0 28 28">
  <g id="Group_3078" data-name="Group 3078" transform="translate(-3723 -5267)">
    <path id="Path_4890" data-name="Path 4890" d="M0,0H28V28H0Z" transform="translate(3723 5267)" fill="none"/>
    <g id="Group_3077" data-name="Group 3077" transform="translate(3723.572 5266.6)">
      <path id="Path_4892" data-name="Path 4892" d="M21.825,9.5h-.991l-.283,1.039a2.239,2.239,0,0,1-2.1,1.652,1.569,1.569,0,0,1-1.3-.614,1.679,1.679,0,0,1-.26-1.464l.165-.614H13.87l-.283,1.039a2.267,2.267,0,0,1-2.124,1.652,1.6,1.6,0,0,1-1.3-.614,1.679,1.679,0,0,1-.26-1.464L10.07,9.5H9.031a3.85,3.85,0,0,0-3.564,2.809L2.54,23.1a2.554,2.554,0,0,0,.4,2.313,2.518,2.518,0,0,0,2.03.968h1.44v.637A3.052,3.052,0,0,0,9.456,30.06H21.825a3.052,3.052,0,0,0,3.045-3.045V12.545A3.052,3.052,0,0,0,21.825,9.5ZM4.994,24.536a.688.688,0,0,1-.567-.236.725.725,0,0,1-.071-.708l2.408-9.017H21.447l-2.29,8.545a2.039,2.039,0,0,1-1.794,1.44H4.994Zm18.034,2.479a1.209,1.209,0,0,1-1.2,1.2H9.479a1.209,1.209,0,0,1-1.2-1.2v-.637h9.088a3.85,3.85,0,0,0,3.564-2.809l2.1-7.813Z" transform="translate(0 -4.66)" fill="#081745"/>
      <path id="Path_4893" data-name="Path 4893" d="M38.226,6.681A1.383,1.383,0,0,0,39.5,5.666l.33-1.251A.754.754,0,0,0,39.1,3.4a1.383,1.383,0,0,0-1.275,1.015l-.33,1.251A.761.761,0,0,0,38.226,6.681Z" transform="translate(-26.763 0)" fill="#081745"/>
      <path id="Path_4894" data-name="Path 4894" d="M67.749,6.681a1.383,1.383,0,0,0,1.275-1.015l.33-1.251A.754.754,0,0,0,68.623,3.4a1.383,1.383,0,0,0-1.275,1.015l-.354,1.251A.765.765,0,0,0,67.749,6.681Z" transform="translate(-49.3 0)" fill="#081745"/>
      <path id="Path_4895" data-name="Path 4895" d="M40.535,54.5h-2.2a.41.41,0,0,0-.354.26l-.425,1.605a.19.19,0,0,0,.189.26h2.2a.41.41,0,0,0,.354-.26l.425-1.605A.19.19,0,0,0,40.535,54.5Z" transform="translate(-26.83 -39.038)" fill="#081745"/>
      <path id="Path_4896" data-name="Path 4896" d="M24.135,54.5h-2.2a.41.41,0,0,0-.354.26l-.425,1.605a.19.19,0,0,0,.189.26h2.2a.41.41,0,0,0,.354-.26l.425-1.605A.182.182,0,0,0,24.135,54.5Z" transform="translate(-14.301 -39.038)" fill="#081745"/>
      <path id="Path_4897" data-name="Path 4897" d="M56.935,54.5h-2.2a.41.41,0,0,0-.354.26l-.425,1.605a.19.19,0,0,0,.189.26h2.2a.41.41,0,0,0,.354-.26l.425-1.605A.19.19,0,0,0,56.935,54.5Z" transform="translate(-39.358 -39.038)" fill="#081745"/>
      <path id="Path_4898" data-name="Path 4898" d="M44.335,40.2h-2.2a.41.41,0,0,0-.354.26l-.425,1.605a.19.19,0,0,0,.189.26h2.2a.41.41,0,0,0,.354-.26l.425-1.605A.182.182,0,0,0,44.335,40.2Z" transform="translate(-29.733 -28.113)" fill="#081745"/>
      <path id="Path_4899" data-name="Path 4899" d="M28.035,40.2h-2.2a.41.41,0,0,0-.354.26l-.425,1.605a.19.19,0,0,0,.189.26h2.2a.41.41,0,0,0,.354-.26l.425-1.605A.19.19,0,0,0,28.035,40.2Z" transform="translate(-17.28 -28.113)" fill="#081745"/>
      <path id="Path_4900" data-name="Path 4900" d="M58.042,42.424h2.2a.41.41,0,0,0,.354-.26l.425-1.605a.19.19,0,0,0-.189-.26h-2.2a.41.41,0,0,0-.354.26l-.425,1.605A.187.187,0,0,0,58.042,42.424Z" transform="translate(-42.331 -28.19)" fill="#081745"/>
    </g>
  </g>
</svg>
