<svg xmlns="http://www.w3.org/2000/svg" width="25" height="24.873" viewBox="0 0 25 24.873">
  <path id="Path_4773" data-name="Path 4773" d="M14.908,1.975c3.265-.356,2.478-.707,4.4,1.958,3.128,1,2.551.362,3.221,3.577,2.45,2.188,2.184,1.368,1.488,4.578,1.348,3,1.438,2.137-.5,4.787.013,3.285.444,2.538-2.407,4.169-1.324,3.006-.626,2.5-3.894,2.829-2.432,2.208-1.588,2.028-4.709,1-3.12,1.027-2.276,1.207-4.709-1-3.268-.331-2.57.177-3.894-2.829-2.851-1.631-2.42-.884-2.407-4.169-1.941-2.65-1.851-1.792-.5-4.787C.292,8.878.025,9.7,2.475,7.51c.67-3.216.093-2.575,3.221-3.577,1.92-2.665,1.132-2.314,4.4-1.958,2.838-1.654,1.976-1.654,4.814,0Zm.735,14.569c0,2.739,1.293,2.021,1.513,1.694.294-.437.738-3.706-.611-3.706-.813,0-.9,1.017-.9,2.013ZM7.5,9.8c0,2.762,1.323,1.971,1.522,1.679C9.3,11.066,9.745,7.8,8.4,7.8c-.812,0-.9,1.012-.9,1.995Zm-1.931,0c0,2.044.846,3.4,2.873,3.4,3.562,0,3.194-4.751,2.07-5.975C9.342,5.957,5.564,5.625,5.564,9.8ZM10,20,16.84,6.339H15.047L8.167,20Zm3.712-3.466c0,2.045.842,3.427,2.873,3.427,3.558,0,3.2-4.762,2.07-6C17.477,12.668,13.711,12.365,13.711,16.538Z" transform="translate(-0.001 -0.735)" fill="#000" fill-rule="evenodd"/>
</svg>
