<svg xmlns="http://www.w3.org/2000/svg" width="45" height="45" viewBox="0 0 45 45">
  <path id="Layer_x0020_1" d="M36.2,14.7A22.5,22.5,0,1,1,13.7,37.2,22.494,22.494,0,0,1,36.2,14.7Zm0,35.055a2.486,2.486,0,1,0-2.486-2.486A2.493,2.493,0,0,0,36.2,49.751Zm0-25.11a3.475,3.475,0,0,1,3.481,3.481c0,1.865-1.492,14.917-3.481,14.917-1.865,0-3.481-13.052-3.481-14.917A3.475,3.475,0,0,1,36.2,24.641Zm0-5.843A18.4,18.4,0,1,1,17.8,37.2,18.356,18.356,0,0,1,36.2,18.8Z" transform="translate(-13.696 -14.696)" fill="#071116" fill-rule="evenodd"/>
</svg>
