<svg xmlns="http://www.w3.org/2000/svg" width="23" height="23" viewBox="0 0 23 23">
  <g id="Group_270" data-name="Group 270" transform="translate(-3993 -778)">
    <path id="Path_28" data-name="Path 28" d="M21.5,10A11.5,11.5,0,1,0,33,21.5,11.5,11.5,0,0,0,21.5,10Zm7.792,17.065-1.611-1.172-3.912,2.842.618,1.9a9.59,9.59,0,0,1-5.774,0l.618-1.9-3.913-2.842-1.611,1.171a9.526,9.526,0,0,1-1.788-5.486h2l1.494-4.6-1.61-1.17a9.583,9.583,0,0,1,4.664-3.394l.617,1.9h4.834l.617-1.9A9.59,9.59,0,0,1,29.2,15.809l-1.61,1.17,1.494,4.6h2A9.528,9.528,0,0,1,29.292,27.065Z" transform="translate(3983 768)" fill="#6d4c41"/>
    <path id="Path_29" data-name="Path 29" d="M37.835,38.5l-1.493,4.6,3.911,2.841L44.164,43.1,42.67,38.5Z" transform="translate(3964.231 747.692)" fill="#6d4c41"/>
  </g>
</svg>
