<svg xmlns="http://www.w3.org/2000/svg" xmlns:xlink="http://www.w3.org/1999/xlink" width="27.849" height="22" viewBox="0 0 27.849 22">
  <defs>
    <linearGradient id="linear-gradient" x1="0.5" y1="1" x2="0.5" gradientUnits="objectBoundingBox">
      <stop offset="0" stop-color="#b8ffff"/>
      <stop offset="1" stop-color="#6481ff"/>
    </linearGradient>
  </defs>
  <g id="Group_4318" data-name="Group 4318" transform="translate(-288.502 -165.697)">
    <path id="Path_17695" data-name="Path 17695" d="M301.957,187.719c-1.25-.045-13.317-12.733-13.453-13.7a3.636,3.636,0,0,1,.733-1.581v0c.061-.092.121-.188.189-.288l.01-.01a29.214,29.214,0,0,1,3.819-4.667c.275-.131,6.823-1.739,9.16-1.739a71.319,71.319,0,0,1,8.779,1.355c.749.144,3.149,3.468,4.383,5.35l0,0c.1.153.194.3.279.428v0a8.175,8.175,0,0,1,.489.823C316.641,174.352,303.209,187.765,301.957,187.719Z" transform="translate(0 -0.021)" fill="url(#linear-gradient)"/>
    <path id="Path_17696" data-name="Path 17696" d="M291.467,174.23c-.17,1.206,7,10.236,12.777,10.757,2.97.268,5.005-4.3,6.059-6.019,1.092-1.779-6.535-2.216-8.133-2.456s-.571,3.293-.284,4.449c.28,1.129,2.631,1.673,3.242,1.615s2.627-3.634,1.234-4.075-1.932,1.274-2.581.393c-.661-.9,3.927-1.667,4.6,0,.649,1.612-1.283,4.3-4.45,3.934-3.192-.364-4.875-3.408-2.8-7.392,2.255-4.327,7.073.648,9.97,2.53,2.79,1.812,5.236-4.109,5.047-6.121-.2-2.094-5.744-5.208-11.632-5.354C298.612,166.345,292.242,168.745,291.467,174.23Z" transform="translate(-1.941 -0.516)" fill="#b3b0ff" opacity="0.2" style="mix-blend-mode: multiply;isolation: isolate"/>
    <path id="Path_17697" data-name="Path 17697" d="M302.046,167.448c-.965.3,4.112,2.483,4.883,2.612s7.78.233,8.924.114,4.436-2.7,4.4-2.979-7.644-1.657-9.224-1.483S302.789,167.218,302.046,167.448Z" transform="translate(-8.793)" fill="#fff" style="mix-blend-mode: soft-light;isolation: isolate"/>
    <path id="Path_17698" data-name="Path 17698" d="M289.535,178.295c.084.63,6.184,3.909,6.579,3.959s3.074-7.7,2.7-7.8-4.461-2.039-4.965-2.051S289.36,176.979,289.535,178.295Z" transform="translate(-0.673 -4.391)" fill="#8de1ff" style="mix-blend-mode: soft-light;isolation: isolate"/>
    <path id="Path_17699" data-name="Path 17699" d="M310.451,186.617c-.7-.014,2.361-7.073,2.691-7.457s7.8-.324,8.394,0,2.384,6.4,2.355,6.789S314.494,186.7,310.451,186.617Z" transform="translate(-14.309 -8.644)" fill="#a69ce7" opacity="0.2" style="mix-blend-mode: multiply;isolation: isolate"/>
    <path id="Path_17700" data-name="Path 17700" d="M353.259,177.974c-.06,1.352-5.89,3.635-6.328,3.635s-2.116-6.648-2.08-7.056,3.122-2.194,3.682-2.285S353.259,177.974,353.259,177.974Z" transform="translate(-36.911 -4.304)" fill="#635ec0" opacity="0.4" style="mix-blend-mode: multiply;isolation: isolate"/>
    <path id="Path_17701" data-name="Path 17701" d="M310.518,200.851c-.775-.05,5.175,9.192,5.7,9.539s7.649-8.971,7.694-9.585S318.982,201.394,310.518,200.851Z" transform="translate(-14.376 -22.878)" fill="#3340c0" opacity="0.4" style="mix-blend-mode: multiply;isolation: isolate"/>
    <path id="Path_17702" data-name="Path 17702" d="M310.608,200.541c-.33.184,3.113,5.8,3.787,6.5s4.052-3.875,6.163-4.464c2.137-.6,3.358-1.481,3.232-2.146s-3.258.057-6.916.235S310.943,200.354,310.608,200.541Z" transform="translate(-14.466 -22.569)" fill="#905ec0" opacity="0.2" style="mix-blend-mode: multiply;isolation: isolate"/>
    <path id="Path_17703" data-name="Path 17703" d="M342.567,194.088c-.21-.548-5.131,2.089-5.631,2.843s-6.116,8.59-6.249,8.69A154.322,154.322,0,0,0,342.567,194.088Z" transform="translate(-27.633 -18.549)" fill="#4068ff" style="mix-blend-mode: soft-light;isolation: isolate"/>
    <path id="Path_17704" data-name="Path 17704" d="M289.862,191.811c.314-.365,6.221,3.05,7.135,4.2.893,1.123,5.176,8.418,5.176,8.418S293.293,196.7,289.862,191.811Z" transform="translate(-0.891 -17.088)" fill="#81f2ff" style="mix-blend-mode: soft-light;isolation: isolate"/>
    <path id="Path_17705" data-name="Path 17705" d="M302.277,167.984s3.477,2.529,4.883,2.612,7.527.566,8.924.114,6.8-3.982-4.225-4.19A31.887,31.887,0,0,0,302.277,167.984Z" transform="translate(-9.024 -0.536)" fill="#dbf2ff" style="mix-blend-mode: soft-light;isolation: isolate"/>
    <path id="Path_17706" data-name="Path 17706" d="M288.509,179.705c.294.5,5.988,3.455,6.883,3.586s2.845-6.532,2.806-6.878-3.085-1.816-3.454-1.989,2.733,1.461,2.972,2.563c.234,1.079-1.994,5.217-3.411,5.157S288.509,179.705,288.509,179.705Z" transform="translate(-0.005 -5.709)" fill="#fff2ff" opacity="0.5" style="mix-blend-mode: soft-light;isolation: isolate"/>
    <path id="Path_17707" data-name="Path 17707" d="M307.789,174.037a17.168,17.168,0,0,1,5.393-.013c2.91.463,2.628,1.523,2.628,1.523a41.1,41.1,0,0,1-5.138-.176A12.046,12.046,0,0,1,307.789,174.037Z" transform="translate(-12.634 -5.321)" fill="#fff"/>
    <path id="Path_17708" data-name="Path 17708" d="M341.573,178.141c-.01-.182,1.2-.481,1.433-.34s0,1.215-.349,1.263S341.573,178.141,341.573,178.141Z" transform="translate(-34.765 -7.905)" fill="#dfe5ff"/>
    <path id="Path_17709" data-name="Path 17709" d="M314.225,177.764c-.554-.031.407,1.833.584,1.828s1.877-1.356,1.752-1.461A22.143,22.143,0,0,0,314.225,177.764Z" transform="translate(-16.739 -7.904)" fill="#dfe5ff"/>
    <path id="Path_17710" data-name="Path 17710" d="M339.577,207.985c-.975.11,2.375-4.463,3.643-5.369,1.293-.924.908,1.232.354,1.865S339.577,207.985,339.577,207.985Z" transform="translate(-33.342 -24.035)" fill="#fff2ff" style="mix-blend-mode: soft-light;isolation: isolate"/>
    <path id="Path_17711" data-name="Path 17711" d="M347.7,199.087c-.275-.344.671-.957.781-.986a4.975,4.975,0,0,1,1.255.281,6.882,6.882,0,0,1-1.67.991C347.89,199.374,347.7,199.087,347.7,199.087Z" transform="translate(-38.744 -21.225)" fill="#dde3ff"/>
    <path id="Path_17712" data-name="Path 17712" d="M289.657,190.739c-.493.027,5.274,6.5,6.646,7.5,1.343.98,1.516-1.9.528-3.1C295.819,193.9,289.657,190.739,289.657,190.739Z" transform="translate(-0.737 -16.404)" fill="#72acef" opacity="0.4" style="mix-blend-mode: multiply;isolation: isolate"/>
    <path id="Path_17713" data-name="Path 17713" d="M288.774,184.951c-.1.579,5.58,4.149,6.537,3.941s2.937-5.829,2.937-5.829-2.009,5.831-1.969,6.059a46.069,46.069,0,0,0,6.388.239c3.227-.028,6.417-.238,6.417-.238a70.949,70.949,0,0,1-12.766.226,28.786,28.786,0,0,0,1.29,2.672,16.872,16.872,0,0,0-2.592-2.783c-1-.674-5.665-3.218-5.9-3.356S288.774,184.951,288.774,184.951Z" transform="translate(-0.177 -11.376)" fill="#c7d1ff"/>
    <path id="Path_17714" data-name="Path 17714" d="M343.918,181.216c.132.367,1.674,4.554,1.674,4.554L344.35,181.2Z" transform="translate(-36.301 -10.153)" fill="#c7d1ff"/>
    <path id="Path_17715" data-name="Path 17715" d="M305.835,178.992c.443-1.147-.99-2.64-2.8-3.51-1.843-.885-2.3,5.608-.881,6.668C303.54,183.189,305.835,178.992,305.835,178.992Z" transform="translate(-8.394 -6.356)" fill="#8dffff" style="mix-blend-mode: soft-light;isolation: isolate"/>
    <path id="Path_17716" data-name="Path 17716" d="M345.887,179.782c1.267-1.894,5.183,1.932,6.145,3.371.935,1.4-3.1,2.934-4.04,2.391S345.887,179.782,345.887,179.782Z" transform="translate(-37.591 -8.889)" fill="#8dcaff" style="mix-blend-mode: soft-light;isolation: isolate"/>
    <path id="Path_17717" data-name="Path 17717" d="M315.015,181.684c-1.324,2.706,2.373.325,4.991.82,2.593.491,5.138,3.465,5.975,3.325s-1.353-5.531-2.011-5.987-5.9-.317-6.673-.172A3.77,3.77,0,0,0,315.015,181.684Z" transform="translate(-17.186 -9.06)" fill="#959cc0" opacity="0.2" style="mix-blend-mode: multiply;isolation: isolate"/>
    <path id="Path_17718" data-name="Path 17718" d="M358.353,187.361c-.171-.128-.622,1.291-1.486,2.031a25.071,25.071,0,0,1-3.172,1.952,21.166,21.166,0,0,0,3.757-1.881A4.263,4.263,0,0,0,358.353,187.361Z" transform="translate(-42.705 -14.185)" fill="#dde3ff"/>
    <path id="Path_17719" data-name="Path 17719" d="M291.177,182.91a10.253,10.253,0,0,0,.185,2.339c.214.53,3.031,2.1,3.031,2.1s-2.109-1.75-2.439-3a6.979,6.979,0,0,1-.254-2.191Z" transform="translate(-1.751 -10.783)" fill="#dde3ff"/>
    <path id="Path_17720" data-name="Path 17720" d="M289.862,191.863s5.892,2.892,7.144,4.335c1.216,1.4.8,3.3-.255,2.935S289.862,191.863,289.862,191.863Z" transform="translate(-0.891 -17.14)" fill="#905ec0" opacity="0.4" style="mix-blend-mode: multiply;isolation: isolate"/>
    <path id="Path_17721" data-name="Path 17721" d="M310.832,201.251c-.236-.029,1.974,4.417,3,4.905s3.313-1.383,5.645-2.609c2.394-1.259,2.987-.522,3.467-1.339a7.48,7.48,0,0,0,.625-1.244A50.069,50.069,0,0,1,310.832,201.251Z" transform="translate(-14.616 -23.102)" fill="#905ec0" opacity="0.4" style="mix-blend-mode: multiply;isolation: isolate"/>
    <path id="Path_17722" data-name="Path 17722" d="M347.083,197.218a7.259,7.259,0,0,0-1.147,1.909c.132.028,1.5-1.549,2.031-1.67s.626,1.094.737.977,3.089-3.365,3.236-3.536a29.219,29.219,0,0,0-3.606,1.605C347.778,196.833,347.083,197.218,347.083,197.218Z" transform="translate(-37.615 -19.118)" fill="#3340c0" opacity="0.4" style="mix-blend-mode: multiply;isolation: isolate"/>
    <path id="Path_17723" data-name="Path 17723" d="M317.633,172.866v0s-3.08-3.818-3.733-4.53-3.585-2.308-8.516-2.266a25.912,25.912,0,0,0-9.9,1.717c-1.164.615-4.1,4.132-4.275,4.346a29.214,29.214,0,0,1,3.819-4.667c.275-.131,6.823-1.739,9.16-1.739a71.318,71.318,0,0,1,8.779,1.355c.749.144,3.149,3.468,4.383,5.35l0,0C317.454,172.591,317.548,172.734,317.633,172.866Z" transform="translate(-1.775 -0.021)" fill="#5e2e84" opacity="0.5" style="mix-blend-mode: multiply;isolation: isolate"/>
    <path id="Path_17724" data-name="Path 17724" d="M307.585,200.22c-.43.184.87,1,1.031,1.09s.035-1.07-.081-1.251S307.585,200.22,307.585,200.22Z" transform="translate(-12.444 -22.474)" fill="#fff"/>
    <path id="Path_17725" data-name="Path 17725" d="M314.773,213.423c.563-.677,2.728,3.429,2.652,3.556S314.028,214.32,314.773,213.423Z" transform="translate(-17.138 -31.214)" fill="#fff"/>
    <path id="Path_17726" data-name="Path 17726" d="M301.957,200.457c-1.25-.045-13.317-12.733-13.453-13.7a3.636,3.636,0,0,1,.733-1.581,13.046,13.046,0,0,0,.487,2.952c.22.456,3.847,4.064,8.375,9.007a6.151,6.151,0,0,0,3.771,2.24c.806.107,2.625-.642,4.365-2.665,4.152-4.829,7.851-7.821,8.583-8.762a3.124,3.124,0,0,0,.761-2.772,13.874,13.874,0,0,1,.767,1.255C316.641,187.09,303.209,200.5,301.957,200.457Z" transform="translate(0 -12.76)" fill="#5e2e84" opacity="0.5" style="mix-blend-mode: multiply;isolation: isolate"/>
  </g>
</svg>
