<svg id="history" xmlns="http://www.w3.org/2000/svg" width="30" height="30" viewBox="0 0 30 30">
  <path id="Path_4776" data-name="Path 4776" d="M0,0H30V30H0Z" fill="none"/>
  <path id="Path_4777" data-name="Path 4777" d="M15.857,3A11.073,11.073,0,0,0,4.714,14H1l4.816,4.754.087.171L10.9,14H7.19a8.667,8.667,0,1,1,8.667,8.556,8.653,8.653,0,0,1-6.116-2.518L7.983,21.773A11.167,11.167,0,0,0,27,14,11.073,11.073,0,0,0,15.857,3ZM14.619,9.111v6.111l5.262,3.08.953-1.564-4.358-2.554V9.111Z" transform="translate(0.333 1)"/>
</svg>
