<svg xmlns="http://www.w3.org/2000/svg" width="23" height="17.25" viewBox="0 0 23 17.25">
  <path id="Path_42" data-name="Path 42" d="M177.25,240h-11.5a5.767,5.767,0,0,0-5.75,5.75v8.625a2.875,2.875,0,0,0,2.875,2.875H164.1a.484.484,0,0,0,.345-.173l2.976-3.967a.484.484,0,0,1,.345-.173h7.475a.484.484,0,0,1,.345.173l2.976,3.967a.484.484,0,0,0,.345.173h1.222A2.875,2.875,0,0,0,183,254.375V245.75A5.767,5.767,0,0,0,177.25,240Zm.719,3.234a1.078,1.078,0,1,1-1.078,1.078A1.078,1.078,0,0,1,177.969,243.234Zm-10.062,3.594a.36.36,0,0,1-.359.359h-1.437a.36.36,0,0,0-.359.359v1.437a.36.36,0,0,1-.359.359h-.719a.36.36,0,0,1-.359-.359v-1.437a.36.36,0,0,0-.359-.359h-1.437a.36.36,0,0,1-.359-.359v-.719a.36.36,0,0,1,.359-.359h1.438a.36.36,0,0,0,.359-.359v-1.437a.36.36,0,0,1,.359-.359h.719a.36.36,0,0,1,.359.359v1.438a.36.36,0,0,0,.359.359h1.437a.36.36,0,0,1,.359.359Zm7.906.719a1.078,1.078,0,1,1,1.078-1.078A1.078,1.078,0,0,1,175.812,247.547Zm2.156,2.156a1.078,1.078,0,1,1,1.078-1.078A1.078,1.078,0,0,1,177.969,249.7Zm2.156-2.156a1.078,1.078,0,1,1,1.078-1.078A1.078,1.078,0,0,1,180.125,247.547Z" transform="translate(-160 -240)" fill="#ff5722"/>
</svg>
