<svg xmlns="http://www.w3.org/2000/svg" xmlns:xlink="http://www.w3.org/1999/xlink" width="24.928" height="24" viewBox="0 0 24.928 24">
  <defs>
    <linearGradient id="linear-gradient" x1="0.5" y1="1" x2="0.5" gradientUnits="objectBoundingBox">
      <stop offset="0.05" stop-color="#ff3f00"/>
      <stop offset="0.718" stop-color="#ff6a03"/>
      <stop offset="1" stop-color="#ffff04"/>
    </linearGradient>
    <linearGradient id="linear-gradient-3" x1="0.5" y1="1" x2="0.5" gradientUnits="objectBoundingBox">
      <stop offset="0" stop-color="#ffa900"/>
      <stop offset="1" stop-color="#ff9600"/>
    </linearGradient>
    <linearGradient id="linear-gradient-4" x1="0.5" y1="1" x2="0.5" gradientUnits="objectBoundingBox">
      <stop offset="0" stop-color="#ff7c04"/>
      <stop offset="1" stop-color="#d92000"/>
    </linearGradient>
    <linearGradient id="linear-gradient-5" x1="0.702" y1="1.018" x2="0.327" y2="0.035" gradientUnits="objectBoundingBox">
      <stop offset="0" stop-color="#ea5104"/>
      <stop offset="1" stop-color="#d92000"/>
    </linearGradient>
    <linearGradient id="linear-gradient-6" x1="0.715" y1="1.016" x2="0.347" y2="0.047" gradientUnits="objectBoundingBox">
      <stop offset="0" stop-color="#ff9600"/>
      <stop offset="1" stop-color="#ffa900"/>
    </linearGradient>
    <linearGradient id="linear-gradient-7" x1="0.5" y1="1" x2="0.5" gradientUnits="objectBoundingBox">
      <stop offset="0.042" stop-color="#ef6300"/>
      <stop offset="1" stop-color="#e13e00"/>
    </linearGradient>
    <linearGradient id="linear-gradient-8" x1="0.5" y1="1" x2="0.5" y2="0" xlink:href="#linear-gradient-7"/>
    <linearGradient id="linear-gradient-9" x1="0.262" y1="1.01" x2="0.262" y2="0.006" xlink:href="#linear-gradient-7"/>
  </defs>
  <g id="Group_4317" data-name="Group 4317" transform="translate(-202.326 -63.153)">
    <path id="Path_17661" data-name="Path 17661" d="M233.63,76.407a12.916,12.916,0,0,1-1.087,4.411,11.232,11.232,0,0,1-.642,1.241s0,0,0,0a11.6,11.6,0,0,1-1.682,2.211l-.025.021a10.514,10.514,0,0,1-.868.8l-.032.028a10.735,10.735,0,0,1-1.351.94.285.285,0,0,1-.041.024s0,0,0,0a9.656,9.656,0,0,1-4.583,1.312h-.03c-.074,0-.148,0-.222,0-.114,0-.232,0-.346-.006l-.185-.009c-.054,0-.111-.006-.165-.011s-.124-.009-.188-.015l-.111-.012a9.142,9.142,0,0,1-1.592-.309,9.7,9.7,0,0,1-.994-.343,11.526,11.526,0,0,1-6.758-10.293,13.08,13.08,0,0,1,.127-2.529,11.7,11.7,0,0,1,6.69-9.158,9.519,9.519,0,0,1,2.491-.694l.092-.011a.335.335,0,0,1,.061-.008,9.77,9.77,0,0,1,1.057-.069h.072c.065,0,.134,0,.2,0a9.851,9.851,0,0,1,7.509,3.842c.036.04.064.077.081.1s.035.044.035.044A12.463,12.463,0,0,1,233.63,76.407Z" transform="translate(-6.406 -0.485)" fill="url(#linear-gradient)"/>
    <path id="Path_17662" data-name="Path 17662" d="M234.629,86.89l-.4.026h-.03l-2.135.133-.047,0-.947.059h-.013l-.621.039-.04,0v-.044l0-.181v-.713l.036-13.093.024-8.886,0-.618v-.465l1.451.111h0l2.513.19v.011l0,.183V63.7l0,.25,0,.121,0,.03.054,6.356.134,15.118.007.721v.072l0,.027,0,.279,0,.131Z" transform="translate(-17.32)" fill="url(#linear-gradient)"/>
    <path id="Path_17663" data-name="Path 17663" d="M224.247,75.922a13.006,13.006,0,0,1-1.046,4.541l0,0a.024.024,0,0,1,0,.013s0,0,0,0c-.02.047-.082.194-.189.41-.047.108-.1.212-.153.313A11.647,11.647,0,0,1,221,83.856q-.149.165-.308.321a10.508,10.508,0,0,1-3.07,2.121,9.5,9.5,0,0,1-1.646.568c-.155.038-.31.074-.468.106h0c-.131.027-.262.051-.4.068l-.051.009a9.6,9.6,0,0,1-1.407.1c-.074,0-.148,0-.222,0h-.04a9.643,9.643,0,0,1-2.749-.487c-.118-.036-.233-.073-.344-.112a.652.652,0,0,1-.071-.024,10.5,10.5,0,0,1-2.781-1.579.062.062,0,0,0-.014-.012,11.53,11.53,0,0,1-1.82-1.811v0a12.836,12.836,0,0,1-2.741-7.2,13.128,13.128,0,0,1,.954-5.9s.025-.067.085-.189a11,11,0,0,1,6.429-6.166.055.055,0,0,0,.023-.008c.17-.061.344-.114.518-.16.095-.027.186-.05.277-.072.167-.042.33-.076.494-.107.095-.019.194-.034.289-.05a9.522,9.522,0,0,1,2.965-.011h0a8.728,8.728,0,0,1,1.186.259.106.106,0,0,1,.05.011c.148.042.3.088.445.141.008,0,.015,0,.026.007.273.095.546.2.811.319A12.259,12.259,0,0,1,224.247,75.922Z" transform="translate(-0.315)" fill="url(#linear-gradient-3)"/>
    <path id="Path_17664" data-name="Path 17664" d="M221.509,66.688a10.486,10.486,0,0,1-2.677,3.806,11.816,11.816,0,0,1-4.056,2.663,9.1,9.1,0,0,1-2.187.533,11.684,11.684,0,0,1-4.479-.261c-2.142-.607-3.109-1.825-3.08-2.373a15.868,15.868,0,0,1,2.271-3.977,10.11,10.11,0,0,1,4.386-3.372.055.055,0,0,0,.023-.008c.17-.061.344-.114.518-.16.06-.019.125-.038.19-.054a.71.71,0,0,1,.087-.019c.167-.042.33-.076.494-.107.095-.019.194-.034.289-.05a9.4,9.4,0,0,1,1.514-.1,9.265,9.265,0,0,1,2.431.351.159.159,0,0,1,.057.015,9.349,9.349,0,0,1,1.487.561c.216.1.419.208.611.317.214.124.443.271.683.436C221.044,65.587,221.572,66.311,221.509,66.688Z" transform="translate(-1.668 -0.035)" fill="#f42774" opacity="0.2" style="mix-blend-mode: multiply;isolation: isolate"/>
    <path id="Path_17665" data-name="Path 17665" d="M203.789,86.8c.484.717,7.431-2.292,10.717-3.195,3.319-.912,8.455.055,8.921-.313s.212-5.822-1.647-8.532c-1.912-2.788-1.927.149-3.957,1.5-2,1.337-10.029,3.663-11.747,3.489s-2.313-.917-2.952-.829S201.425,83.292,203.789,86.8Z" transform="translate(0 -6.447)" fill="#fff" style="mix-blend-mode: soft-light;isolation: isolate"/>
    <path id="Path_17666" data-name="Path 17666" d="M226.317,83.275c-.116,4.053-2.925,7.245-6.377,7.523-.167.014-.333.022-.5.022-3.684,0-6.82-3.3-7.016-7.545-.2-4.445,2.868-8.208,6.878-8.208.185,0,.366.01.548.026C223.593,75.421,226.438,79.04,226.317,83.275Z" transform="translate(-6.224 -7.353)" fill="url(#linear-gradient-4)"/>
    <path id="Path_17667" data-name="Path 17667" d="M228.007,83.317c-.116,4.053-2.925,7.245-6.377,7.523-3.455-.275-6.309-3.467-6.473-7.523-.172-4.238,2.636-7.857,6.379-8.182C225.283,75.463,228.128,79.082,228.007,83.317Z" transform="translate(-7.914 -7.395)" fill="#ff6b04"/>
    <path id="Path_17668" data-name="Path 17668" d="M225.624,87.163s.583,2.572.155,3.408a.516.516,0,0,1-.171.208,7.247,7.247,0,0,1-1.122.089c-.544.016-.62-.427-1.268-.8-.121-.07-.235-.138-.335-.2-.288-.176-.478-.306-.478-.306a12.789,12.789,0,0,1-1.747,1.015,3.993,3.993,0,0,1-.72.253,9.482,9.482,0,0,1-1.426.043c-.726-.483.558-3.558.583-3.7a.015.015,0,0,0,0,0s-2.92-2.227-2.769-3.273v0c.164-1.092,3.734-1.2,3.734-1.2s.32-3.506,1.27-4.279c.121-.1.734,0,.857,0,.335,0,.69.428,1.019,1.012a18.245,18.245,0,0,1,1.276,3.268s.451.014,1.043.084a7.286,7.286,0,0,1,2.1.5c.342.162.585.366.632.627.131.706-1.136,1.967-1.953,2.693C225.919,86.93,225.624,87.163,225.624,87.163Z" transform="translate(-8.638 -9.385)" fill="url(#linear-gradient-5)"/>
    <path id="Path_17669" data-name="Path 17669" d="M225.5,85.269h0c-.033.04-.066.084-.1.124a10.668,10.668,0,0,1-.783.836c-.158.155-.317.3-.46.427-.39.349-.686.578-.686.578s.16.706.255,1.492a4.049,4.049,0,0,1-.083,1.918.518.518,0,0,1-.172.208.586.586,0,0,1-.32.088,5.048,5.048,0,0,1-2.07-.8c-.123-.07-.238-.137-.336-.2-.291-.178-.48-.306-.48-.306a12.679,12.679,0,0,1-1.744,1.013,3.767,3.767,0,0,1-.72.252,1.136,1.136,0,0,1-.516.025c-.007,0-.01,0-.014,0a.5.5,0,0,1-.158-.066c-.46-.306-.415-1.615-.314-2.572.028-.266.06-.5.086-.686s.054-.327.057-.353v-.007a14,14,0,0,1-2.423-2.34.031.031,0,0,1-.008-.014,1.95,1.95,0,0,1-.345-.709v-.007a.763.763,0,0,1,0-.2.565.565,0,0,1,.142-.3,3.291,3.291,0,0,1,1.781-.714,13.61,13.61,0,0,1,1.806-.2s.09-.379.245-.912c.366-1.248,1.1-3.365,1.861-3.365.337,0,.692.427,1.025,1.009a10.762,10.762,0,0,1,.593,1.266c.418,1.027.7,2,.7,2s.453.014,1.043.086a7.265,7.265,0,0,1,2.107.494c.343.164.585.368.633.627A1.944,1.944,0,0,1,225.5,85.269Z" transform="translate(-7.298 -9.457)" fill="url(#linear-gradient-6)"/>
    <path id="Path_17670" data-name="Path 17670" d="M204.26,103.186c-.347-1.4,2.977.37.811,2.013A8.369,8.369,0,0,1,204.26,103.186Z" transform="translate(-1.178 -24.393)" fill="#fff"/>
    <path id="Path_17671" data-name="Path 17671" d="M240.233,63.934c-.914-.085,4.541,1.983,5.819,5.687,1.231,3.567,3.884,2.431,3.884,2.431S247.819,64.254,240.233,63.934Z" transform="translate(-23.331 -0.48)" fill="#fff" style="mix-blend-mode: soft-light;isolation: isolate"/>
    <path id="Path_17672" data-name="Path 17672" d="M248.236,107.365a5.5,5.5,0,0,1-.642,1.241s0,0,0,0a15.456,15.456,0,0,1-1.9,2.386l-.011.009c-.219.223-.441.437-.669.637l-.032.028a6.8,6.8,0,0,1-1.351.94.284.284,0,0,1-.041.024s0,0,0,0a14.151,14.151,0,0,1-4.181,1.2c-.479.065-.835.095-1,.107-.067,0-.1.006-.1.006a.784.784,0,0,1-.08-.015.277.277,0,0,1-.074-.021c-.1-.065.435-.154,1.258-.487a9.469,9.469,0,0,0,5.231-5.192s2.873-1.4,3.551-1.275C248.3,106.981,248.314,107.128,248.236,107.365Z" transform="translate(-22.1 -27.032)" fill="#de376d" opacity="0.7" style="mix-blend-mode: multiply;isolation: isolate"/>
    <path id="Path_17673" data-name="Path 17673" d="M238.7,64.5a11.208,11.208,0,0,1,7.846,8.9c1.42,6.918-4.133,12.143-4.133,12.143a16.876,16.876,0,0,0,3.489-11.4C245.315,66.966,238.7,64.5,238.7,64.5Z" transform="translate(-22.447 -0.833)" fill="#ffe016"/>
    <path id="Path_17674" data-name="Path 17674" d="M257.5,87.9c-.422-.632-1.479,2.77-.275,3.407C257.815,91.615,258.313,89.11,257.5,87.9Z" transform="translate(-33.539 -15.224)" fill="#fff"/>
    <path id="Path_17675" data-name="Path 17675" d="M230.534,108.417c-.02.047-.082.194-.189.41a13.534,13.534,0,0,1-2.008,2.963,9.971,9.971,0,0,1-3.379,2.514,8.634,8.634,0,0,1-1.534.508c-.121.026-.242.053-.367.074a.028.028,0,0,1-.017,0c-.192.036-.39.065-.595.086-.03.006-.064.009-.1.012l-.081.009c-.3.026-.588.044-.866.05h-.013c-.228.006-.447,0-.662,0a10.5,10.5,0,0,1-3.092-.557.649.649,0,0,1-.071-.024,8.177,8.177,0,0,1-2.781-1.579.063.063,0,0,0-.014-.012l-.011-.012A16.262,16.262,0,0,0,218,114.191a10.321,10.321,0,0,0,2.724.366,8.71,8.71,0,0,0,.993-.065c.088-.012.179-.024.266-.039a10.535,10.535,0,0,0,2.966-.942A14.734,14.734,0,0,0,230.534,108.417Z" transform="translate(-7.655 -27.934)" fill="#fff" opacity="0.5" style="mix-blend-mode: soft-light;isolation: isolate"/>
    <path id="Path_17676" data-name="Path 17676" d="M225.5,88.936h0c-.033.04-.066.084-.1.124a10.669,10.669,0,0,1-.783.836,13.15,13.15,0,0,0-2.927.387c-1.271.349-3.1,1.021-4.89,1.665.028-.266.06-.5.086-.686s.054-.327.057-.353V90.9a14,14,0,0,1-2.423-2.34.031.031,0,0,1-.008-.014,1.951,1.951,0,0,1-.345-.709v-.007a.763.763,0,0,1,0-.2.565.565,0,0,1,.142-.3,3.291,3.291,0,0,1,1.781-.714,13.61,13.61,0,0,1,1.806-.2s.09-.379.245-.912c1.164-.324,2.379-.7,3.479-1.09.418,1.027.7,2,.7,2s.453.014,1.043.086a7.265,7.265,0,0,1,2.107.494c.343.164.585.368.633.627A1.944,1.944,0,0,1,225.5,88.936Z" transform="translate(-7.298 -13.124)" fill="#fff" opacity="0.5" style="mix-blend-mode: soft-light;isolation: isolate"/>
    <path id="Path_17677" data-name="Path 17677" d="M218.666,111.031s5.052,3.663,9.015.2A6.291,6.291,0,0,1,218.666,111.031Z" transform="translate(-10.084 -29.547)" fill="#ffe016"/>
    <path id="Path_17678" data-name="Path 17678" d="M212.942,80.685c.28,1.355,1.364-3.022,5.8-4.4,4.5-1.4,7.674,4.662,7.674,4.662S225.685,75,219.453,75C214.581,75,212.942,80.685,212.942,80.685Z" transform="translate(-6.552 -7.31)" fill="#d42f55" opacity="0.5" style="mix-blend-mode: multiply;isolation: isolate"/>
    <path id="Path_17679" data-name="Path 17679" d="M239.3,96.6l-.819,0a18.3,18.3,0,0,0,2.3-2.33c.815-1.08,1.058-.409,1.058-.409A8.393,8.393,0,0,1,239.3,96.6Z" transform="translate(-22.311 -18.823)" fill="#de376d" opacity="0.7" style="mix-blend-mode: multiply;isolation: isolate"/>
    <path id="Path_17680" data-name="Path 17680" d="M236.634,89.754s-.6.392,0,1.055,2.229.088,2.419-.343S237.457,89.741,236.634,89.754Z" transform="translate(-21.008 -16.416)" fill="#fff"/>
    <path id="Path_17681" data-name="Path 17681" d="M243.5,118.715c-.407.23,1.869.271,2.815-.2a6.344,6.344,0,0,0,2.525-2c.209-.587-1.094-.473-1.884-.292S245.421,117.632,243.5,118.715Z" transform="translate(-25.381 -32.659)" fill="#fff" style="mix-blend-mode: soft-light;isolation: isolate"/>
    <g id="Group_4314" data-name="Group 4314" transform="translate(222.268 78.971)">
      <path id="Path_17682" data-name="Path 17682" d="M255.842,104.492c-.763-.232-1.824,1.263-1.278,2.5C255.1,108.215,257.58,105.022,255.842,104.492Z" transform="translate(-254.413 -104.468)" fill="url(#linear-gradient-7)"/>
      <path id="Path_17683" data-name="Path 17683" d="M255.025,105.555c-.071.9,1.073.959,1.512.488s.429-1.542-.418-1.564S255.025,105.555,255.025,105.555Z" transform="translate(-254.789 -104.475)" fill="#de376d" opacity="0.7" style="mix-blend-mode: multiply;isolation: isolate"/>
      <path id="Path_17684" data-name="Path 17684" d="M254.419,108.986c.249-.543.917.124,1.329.154s-.3.918-.771.788S254.419,108.986,254.419,108.986Z" transform="translate(-254.417 -107.125)" fill="#ff9500"/>
    </g>
    <g id="Group_4315" data-name="Group 4315" transform="translate(219.87 79.337)">
      <path id="Path_17685" data-name="Path 17685" d="M249.446,105.492c-.767-.227-1.535.851-1.211,1.573S250.782,105.888,249.446,105.492Z" transform="translate(-248.156 -105.448)" fill="url(#linear-gradient-8)"/>
      <path id="Path_17686" data-name="Path 17686" d="M249.7,105.44c-.531.142-.708.892-.5,1.113s1.218-.048,1.257-.556S249.906,105.383,249.7,105.44Z" transform="translate(-248.744 -105.426)" fill="#de376d" opacity="0.7" style="mix-blend-mode: multiply;isolation: isolate"/>
      <path id="Path_17687" data-name="Path 17687" d="M248.15,108.514c.14-.662.426,0,.838.075S248.173,109.4,248.15,108.514Z" transform="translate(-248.15 -107.152)" fill="#ff9500"/>
    </g>
    <g id="Group_4316" data-name="Group 4316" transform="translate(207.168 69.827)">
      <path id="Path_17688" data-name="Path 17688" d="M215.944,80.643c-.622-.2-1.183.7-.891,1.311S217.027,80.985,215.944,80.643Z" transform="translate(-214.973 -80.603)" fill="url(#linear-gradient-9)"/>
      <path id="Path_17689" data-name="Path 17689" d="M216.112,80.6a.67.67,0,0,0-.345.93c.176.187.969-.031.976-.457S216.277,80.55,216.112,80.6Z" transform="translate(-215.412 -80.585)" fill="#de376d" opacity="0.7" style="mix-blend-mode: multiply;isolation: isolate"/>
      <path id="Path_17690" data-name="Path 17690" d="M214.983,83.156c.081-.555.34,0,.672.07S215.043,83.9,214.983,83.156Z" transform="translate(-214.979 -82.022)" fill="#ff9500"/>
    </g>
    <path id="Path_17691" data-name="Path 17691" d="M260.614,74.083c-.026-.034-.054-.065-.081-.1C260.568,74.026,260.6,74.06,260.614,74.083Z" transform="translate(-35.922 -6.685)" fill="#d42f55" opacity="0.8" style="mix-blend-mode: multiply;isolation: isolate"/>
    <path id="Path_17692" data-name="Path 17692" d="M226.648,67.3a9.144,9.144,0,0,0-1.872-1.617s-.007,0-.011-.008a12.992,12.992,0,0,0-5.625-2.027,1,1,0,0,0-.106-.015c-.377-.046-.769-.08-1.173-.1a1.069,1.069,0,0,0-.111,0c-.049,0-.1,0-.149,0a17.433,17.433,0,0,0-1.971.046c-.156.011-.309.027-.461.046a12.31,12.31,0,0,0-7.5,3.425,10.223,10.223,0,0,0-2.043,2.793,11,11,0,0,1,6.429-6.166.054.054,0,0,0,.023-.008c.17-.061.344-.114.518-.16.061-.019.125-.038.19-.054a.709.709,0,0,1,.087-.019c.167-.042.33-.076.494-.107.095-.019.194-.034.289-.05a9.522,9.522,0,0,1,2.965-.011h0l2.513.19v0A9.847,9.847,0,0,1,226.648,67.3Z" transform="translate(-2.037)" fill="#d42f55" opacity="0.8" style="mix-blend-mode: multiply;isolation: isolate"/>
    <path id="Path_17693" data-name="Path 17693" d="M228.565,116.005a10.506,10.506,0,0,1-.868.8l-.032.028a6.793,6.793,0,0,1-1.351.94.283.283,0,0,1-.041.024s0,0,0,0a9.655,9.655,0,0,1-4.583,1.312h-.03l-2.135.133a9.6,9.6,0,0,1-1.407.1c-.074,0-.148,0-.222,0l-.04,0v0a9.643,9.643,0,0,1-2.749-.487c-.118-.036-.233-.073-.344-.112a.647.647,0,0,1-.071-.024,8.177,8.177,0,0,1-2.781-1.579.063.063,0,0,0-.014-.012,11.529,11.529,0,0,1-1.82-1.811,15.85,15.85,0,0,0,5.057,3.13,11.714,11.714,0,0,0,2.724.672,10.417,10.417,0,0,0,2.115.044h0l.2-.018a.028.028,0,0,0,.017,0c.188-.015.373-.036.555-.059l.091-.009c.438-.056.859-.127,1.261-.208a15.306,15.306,0,0,0,6.276-2.7l.011-.009C228.465,116.088,228.529,116.036,228.565,116.005Z" transform="translate(-4.78 -32.196)" fill="#d42f55" opacity="0.8" style="mix-blend-mode: multiply;isolation: isolate"/>
    <path id="Path_17694" data-name="Path 17694" d="M245.17,65.371c-1.324-.056,1.426,1.983,2.5,2.858a3.157,3.157,0,0,0,2.921.172C250.65,68.316,247.844,65.485,245.17,65.371Z" transform="translate(-26.223 -1.368)" fill="#fff"/>
  </g>
</svg>
