<svg xmlns="http://www.w3.org/2000/svg" width="11.999" height="11.999" viewBox="0 0 11.999 11.999">
  <path id="question" d="M8,14A6,6,0,1,0,2,8,6,6,0,0,0,8,14ZM7.348,8.765a.555.555,0,0,0,.575.614H8.2a.315.315,0,0,0,.314-.3,1.345,1.345,0,0,1,.406-.827L9.3,7.883a3.209,3.209,0,0,0,.62-.808A1.773,1.773,0,0,0,10.1,6.3a1.789,1.789,0,0,0-.545-1.4,2.191,2.191,0,0,0-1.533-.5,2.2,2.2,0,0,0-1.548.523A1.7,1.7,0,0,0,6,5.691a.56.56,0,0,0,.594.678,1.168,1.168,0,0,0,.782-.5l.093-.1a.727.727,0,0,1,.555-.223q.727,0,.727.818a1.035,1.035,0,0,1-.14.518,3.109,3.109,0,0,1-.564.634,2.2,2.2,0,0,0-.578.789A2.122,2.122,0,0,0,7.348,8.765Zm.034,1.567a.78.78,0,0,0,0,1.06.747.747,0,0,0,.55.208.731.731,0,0,0,.545-.208.768.768,0,0,0,0-1.06.726.726,0,0,0-.541-.213A.741.741,0,0,0,7.382,10.332Z" transform="translate(-2 -2)" fill="#b8b8b8" fill-rule="evenodd"/>
</svg>
