<svg xmlns="http://www.w3.org/2000/svg" xmlns:xlink="http://www.w3.org/1999/xlink" width="28" height="28" viewBox="0 0 28 28">
  <defs>
    <linearGradient id="linear-gradient" x1="0.5" x2="0.5" y2="1" gradientUnits="objectBoundingBox">
      <stop offset="0" stop-color="#ddbd4e"/>
      <stop offset="0" stop-color="#fef29a"/>
      <stop offset="0.108" stop-color="#f6cf37"/>
      <stop offset="1" stop-color="#ba8200"/>
    </linearGradient>
  </defs>
  <path id="noun-report-4462574" d="M147.269,65.423h-4.308V55.731a3.23,3.23,0,0,0-3.231-3.231h-14a3.23,3.23,0,0,0-3.231,3.231V70.808a9.7,9.7,0,0,0,9.692,9.692h10.769a7.547,7.547,0,0,0,7.538-7.538V68.654a3.23,3.23,0,0,0-3.231-3.231Zm-18.308-6.461h4.308a1.077,1.077,0,1,1,0,2.154h-4.308a1.077,1.077,0,1,1,0-2.154ZM136.5,69.731h-7.538a1.077,1.077,0,1,1,0-2.154H136.5a1.077,1.077,0,1,1,0,2.154Zm0-4.308h-7.538a1.077,1.077,0,1,1,0-2.154H136.5a1.077,1.077,0,1,1,0,2.154Zm11.846,7.538a5.391,5.391,0,0,1-5.385,5.385V67.577h4.308a1.077,1.077,0,0,1,1.077,1.077Z" transform="translate(-122.5 -52.5)" fill="url(#linear-gradient)"/>
</svg>
