<svg xmlns="http://www.w3.org/2000/svg" xmlns:xlink="http://www.w3.org/1999/xlink" width="22" height="22" viewBox="0 0 22 22">
  <defs>
    <clipPath id="clip-path">
      <rect id="Rectangle_1268" data-name="Rectangle 1268" width="22" height="22" fill="#673ab7"/>
    </clipPath>
  </defs>
  <g id="Mask_Group_9" data-name="Mask Group 9" clip-path="url(#clip-path)">
    <g id="Send_Money" data-name="Send Money" transform="translate(0 0.04)">
      <path id="Path_4749" data-name="Path 4749" d="M26.278,30.792H5.629a.675.675,0,0,1-.675-.675v-11.9a.675.675,0,0,1,.675-.675H26.278a.675.675,0,0,1,.675.675v11.9A.675.675,0,0,1,26.278,30.792ZM6.3,29.441H25.6V18.891H6.3Z" transform="translate(-4.954 -8.982)" fill="#673ab7"/>
      <path id="Path_4750" data-name="Path 4750" d="M16.822,24.193a3.917,3.917,0,1,1,3.917-3.917A3.917,3.917,0,0,1,16.822,24.193Zm0-6.483a2.566,2.566,0,1,0,2.566,2.566,2.566,2.566,0,0,0-2.566-2.566Zm-6.195-.667H8.406a.675.675,0,1,1,0-1.351h2.22a.675.675,0,1,1,0,1.351Zm14.61,7.815h-2.22a.675.675,0,1,1,0-1.351h2.22a.675.675,0,1,1,0,1.351Zm-8.415-12.4a.675.675,0,0,1-.675-.675V5.767a.675.675,0,1,1,1.351,0v6.021a.675.675,0,0,1-.675.675Z" transform="translate(-5.822 -5.092)" fill="#673ab7"/>
      <path id="Path_4751" data-name="Path 4751" d="M17.14,8.853A.675.675,0,0,1,16.662,7.7L19.073,5.29a.675.675,0,0,1,.955.955L17.617,8.655A.675.675,0,0,1,17.14,8.853Z" transform="translate(-8.551 -5.092)" fill="#673ab7"/>
      <path id="Path_4752" data-name="Path 4752" d="M23.057,8.853a.675.675,0,0,1-.477-.2L20.169,6.245a.675.675,0,1,1,.955-.955L23.535,7.7a.675.675,0,0,1-.478,1.153Z" transform="translate(-9.647 -5.092)" fill="#673ab7"/>
    </g>
  </g>
</svg>
