<svg xmlns="http://www.w3.org/2000/svg" width="28" height="28" viewBox="0 0 28 28">
  <g id="noun-payment-4462571" transform="translate(-122.41 -52.5)">
    <path id="Path_17727" data-name="Path 17727" d="M147.18,58.96V55.73a3.24,3.24,0,0,0-3.23-3.23H128.876a4.29,4.29,0,0,0-4.3,4.134.94.94,0,0,0-.011.172V69.232a6.452,6.452,0,1,0,9.109,9.109h13.5a3.24,3.24,0,0,0,3.23-3.23V72.957H146.1a4.307,4.307,0,0,1,0-8.614h4.307V62.19a3.24,3.24,0,0,0-3.23-3.23Zm-18.3-4.307H143.95a1.077,1.077,0,0,1,1.077,1.077v3.23H128.876a2.16,2.16,0,0,1-2.153-2.153,2.618,2.618,0,0,1,.022-.291,2.153,2.153,0,0,1,2.132-1.863Zm-4.307,19.381a4.307,4.307,0,1,1,1.262,3.045A4.306,4.306,0,0,1,124.569,74.034Z" fill="#fff"/>
    <path id="Path_17728" data-name="Path 17728" d="M472.5,282.153a2.16,2.16,0,0,0,2.153,2.153h4.307V280h-4.307a2.16,2.16,0,0,0-2.153,2.153Z" transform="translate(-328.55 -213.503)" fill="#fff"/>
    <path id="Path_17729" data-name="Path 17729" d="M180.384,352.154h-1.077v-1.077a1.077,1.077,0,1,0-2.153,0v1.077h-1.077a1.077,1.077,0,1,0,0,2.153h1.077v1.077a1.077,1.077,0,1,0,2.153,0v-1.077h1.077a1.077,1.077,0,1,0,0-2.153Z" transform="translate(-49.355 -279.196)" fill="#fff"/>
  </g>
</svg>
