<svg xmlns="http://www.w3.org/2000/svg" xmlns:xlink="http://www.w3.org/1999/xlink" width="22" height="22" viewBox="0 0 22 22">
  <defs>
    <clipPath id="clip-path">
      <rect id="Rectangle_1269" data-name="Rectangle 1269" width="22" height="22" fill="#4caf50"/>
    </clipPath>
  </defs>
  <g id="Mask_Group_10" data-name="Mask Group 10" clip-path="url(#clip-path)">
    <path id="exchange" d="M22.65,20.667a.411.411,0,0,1-.186-.039.489.489,0,0,1-.3-.45V16.892H16.527a.489.489,0,0,1-.489-.489V12.739a.489.489,0,0,1,.489-.489h5.634V8.974a.489.489,0,0,1,.831-.347l5.629,5.6a.49.49,0,0,1,0,.69l-5.6,5.61A.489.489,0,0,1,22.65,20.667Zm-5.634-4.754H22.65a.489.489,0,0,1,.489.489V19l4.426-4.4L23.14,10.2v2.587a.489.489,0,0,1-.489.489H17.016Zm-4.147,12.2a.489.489,0,0,1-.347-.142L6.9,22.369a.514.514,0,0,1-.142-.347.489.489,0,0,1,.142-.347l5.61-5.6a.489.489,0,0,1,.831.347V19.7h5.654a.489.489,0,0,1,.489.489v3.668a.489.489,0,0,1-.489.489H13.358v3.282a.482.482,0,0,1-.489.489ZM7.978,22.022l4.426,4.4V23.832a.489.489,0,0,1,.489-.489H18.5v-2.69H12.869a.489.489,0,0,1-.489-.489V17.6Z" transform="translate(-6.756 -7.352)" fill="#4caf50"/>
  </g>
</svg>
