<svg xmlns="http://www.w3.org/2000/svg" xmlns:xlink="http://www.w3.org/1999/xlink" width="30.333" height="28" viewBox="0 0 30.333 28">
  <defs>
    <linearGradient id="linear-gradient" x1="0.5" x2="0.5" y2="1" gradientUnits="objectBoundingBox">
      <stop offset="0" stop-color="#ddbd4e"/>
      <stop offset="0" stop-color="#fef29a"/>
      <stop offset="0.108" stop-color="#f6cf37"/>
      <stop offset="1" stop-color="#ba8200"/>
    </linearGradient>
  </defs>
  <path id="noun-receive-4462580" d="M148.168,70h-21a4.667,4.667,0,0,0,0,9.333V94.5a3.5,3.5,0,0,0,3.5,3.5h15.167c1.93,0,2.333-1.57,2.333-3.5V79.333a4.667,4.667,0,0,0,0-9.333Zm-23.333,4.667a2.333,2.333,0,0,1,2.333-2.333V77a2.333,2.333,0,0,1-2.333-2.333Zm14,5.833v7.683l1.509-1.509h0a1.167,1.167,0,0,1,1.649,1.649l-3.5,3.5a1.166,1.166,0,0,1-1.649,0l-3.5-3.5a1.167,1.167,0,0,1,1.649-1.649l1.509,1.508V80.5a1.167,1.167,0,1,1,2.333,0Zm9.333-3.5V72.333a2.333,2.333,0,1,1,0,4.667Z" transform="translate(-122.501 -70)" fill="url(#linear-gradient)"/>
</svg>
