<svg id="home-alt-avtive" xmlns="http://www.w3.org/2000/svg" xmlns:xlink="http://www.w3.org/1999/xlink" width="28" height="28" viewBox="0 0 28 28">
  <defs>
    <linearGradient id="linear-gradient" x1="0.5" x2="0.5" y2="1" gradientUnits="objectBoundingBox">
      <stop offset="0" stop-color="#d39e63"/>
      <stop offset="1" stop-color="#ecd6b1"/>
    </linearGradient>
  </defs>
  <rect id="Rectangle_1433" data-name="Rectangle 1433" width="28" height="28" fill="rgba(255,255,255,0)"/>
  <path id="Path_16787" data-name="Path 16787" d="M15.992,3.56a3.5,3.5,0,0,0-4.651,0l-8.95,7.955a1.167,1.167,0,0,0,1.55,1.744l.392-.348v6.553a21.456,21.456,0,0,0,.1,2.639A3.466,3.466,0,0,0,5.358,24.2a3.466,3.466,0,0,0,2.092.929,21.448,21.448,0,0,0,2.639.1h7.154a21.449,21.449,0,0,0,2.639-.1A3.187,3.187,0,0,0,22.9,22.1a21.452,21.452,0,0,0,.1-2.639V12.911l.392.348a1.167,1.167,0,0,0,1.55-1.744ZM13.667,18.221A1.167,1.167,0,0,0,12.5,19.387v2.333a1.167,1.167,0,1,1-2.333,0V19.387a3.5,3.5,0,1,1,7,0v2.333a1.167,1.167,0,1,1-2.333,0V19.387A1.167,1.167,0,0,0,13.667,18.221Z" transform="translate(0.333 0.446)" fill-rule="evenodd" fill="url(#linear-gradient)"/>
</svg>
