<svg xmlns="http://www.w3.org/2000/svg" xmlns:xlink="http://www.w3.org/1999/xlink" width="14.555" height="18" viewBox="0 0 14.555 18">
  <defs>
    <linearGradient id="linear-gradient" x1="0.5" x2="0.5" y2="1" gradientUnits="objectBoundingBox">
      <stop offset="0" stop-color="#ddbd4e"/>
      <stop offset="0" stop-color="#fef29a"/>
      <stop offset="0.108" stop-color="#f6cf37"/>
      <stop offset="1" stop-color="#ba8200"/>
    </linearGradient>
  </defs>
  <g id="Group_4624" data-name="Group 4624" transform="translate(1172 -159)">
    <g id="Outlined" transform="translate(-1317.833 129.826)">
      <path id="Path_18039" data-name="Path 18039" d="M146.651,46.459a1.466,1.466,0,0,0,1.562-.184.666.666,0,0,1,.465-.166c.292,0,.416.1.678.359a2.037,2.037,0,0,0,3.084,0c.266-.255.385-.359.677-.359s.411.1.676.359a2.033,2.033,0,0,0,3.078,0c.266-.255.385-.359.677-.359h0a.651.651,0,0,1,.458.161,1.469,1.469,0,0,0,1.565.182,1.436,1.436,0,0,0,.816-1.3V30.63a1.457,1.457,0,0,0-1.453-1.456H147.289a1.458,1.458,0,0,0-1.456,1.456V45.153a1.436,1.436,0,0,0,.819,1.306Zm.429-15.83a.208.208,0,0,1,.208-.208h11.646a.208.208,0,0,1,.208.208V45.15a.185.185,0,0,1-.11.18.224.224,0,0,1-.245-.033,1.888,1.888,0,0,0-1.235-.433,2.059,2.059,0,0,0-1.542.706c-.265.255-.385.359-.675.359s-.411-.1-.677-.359h0a2.035,2.035,0,0,0-3.078,0c-.265.255-.385.359-.676.359s-.416-.1-.679-.359h0a2.066,2.066,0,0,0-1.542-.705,1.89,1.89,0,0,0-1.248.438.225.225,0,0,1-.242.032.187.187,0,0,1-.111-.181Z" fill="#000"/>
      <path id="Path_18040" data-name="Path 18040" d="M217.268,102.317a.622.622,0,0,0,.882,0l1.664-1.664h0a.624.624,0,0,0-.882-.882l-1.223,1.222-.391-.39a.624.624,0,0,0-.882.882Z" transform="translate(-67.924 -67.919)" fill="#000"/>
      <path id="Path_18041" data-name="Path 18041" d="M217.268,218.986a.622.622,0,0,0,.882,0l1.664-1.664h0a.624.624,0,0,0-.882-.882l-1.223,1.222-.391-.39h0a.624.624,0,0,0-.882.882Z" transform="translate(-67.924 -180.428)" fill="#000"/>
      <path id="Path_18042" data-name="Path 18042" d="M216.425,335.654a.622.622,0,0,0,.882,0l1.664-1.664h0a.624.624,0,0,0-.882-.882l-1.223,1.222-.391-.39h0a.624.624,0,1,0-.882.882Z" transform="translate(-67.082 -292.937)" fill="#000"/>
      <path id="Path_18043" data-name="Path 18043" d="M356.455,123.748h3.328a.624.624,0,0,0,0-1.248h-3.328a.624.624,0,0,0,0,1.248Z" transform="translate(-202.511 -89.999)" fill="#000"/>
      <path id="Path_18044" data-name="Path 18044" d="M356.455,240.418h3.328a.624.624,0,0,0,0-1.248h-3.328a.624.624,0,0,0,0,1.248Z" transform="translate(-202.511 -202.509)" fill="#000"/>
      <path id="Path_18045" data-name="Path 18045" d="M356.455,357.078h3.328a.624.624,0,0,0,0-1.248h-3.328a.624.624,0,0,0,0,1.248Z" transform="translate(-202.511 -315.01)" fill="#000"/>
    </g>
    <path id="Filled" d="M146.65,46.457a1.467,1.467,0,0,0,1.561-.184.665.665,0,0,1,.466-.166c.293,0,.416.1.679.359h0a2.036,2.036,0,0,0,3.083,0c.266-.255.385-.359.677-.359s.411.1.676.359a2.033,2.033,0,0,0,3.078,0c.266-.255.385-.359.677-.359h0a.657.657,0,0,1,.458.161,1.472,1.472,0,0,0,1.565.181,1.433,1.433,0,0,0,.816-1.3V30.627a1.457,1.457,0,0,0-1.453-1.456H147.287a1.458,1.458,0,0,0-1.456,1.456V45.151a1.436,1.436,0,0,0,.819,1.306ZM153.942,32.5h3.328a.624.624,0,0,1,0,1.248h-3.328a.624.624,0,0,1,0-1.248Zm0,4.16h3.328a.624.624,0,0,1,0,1.248h-3.328a.624.624,0,0,1,0-1.248Zm0,4.16h3.328a.624.624,0,0,1,0,1.248h-3.328a.624.624,0,0,1,0-1.248Zm-5.433-8.136a.623.623,0,0,1,.882,0l.391.39,1.223-1.222a.624.624,0,0,1,.882.882L150.223,34.4h0a.622.622,0,0,1-.882,0l-.832-.832h0a.623.623,0,0,1,0-.882Zm0,4.16a.623.623,0,0,1,.882,0l.391.39,1.223-1.222a.624.624,0,0,1,.882.882l-1.664,1.664h0a.622.622,0,0,1-.882,0l-.832-.832h0a.623.623,0,0,1,0-.882Zm0,4.16h0a.623.623,0,0,1,.882,0l.391.39,1.223-1.222a.624.624,0,0,1,.882.882l-1.664,1.664h0a.622.622,0,0,1-.882,0l-.832-.832a.623.623,0,0,1,0-.882Z" transform="translate(-1317.831 129.829)" opacity="0.004" fill="#000"/>
  </g>
</svg>
