<svg xmlns="http://www.w3.org/2000/svg" xmlns:xlink="http://www.w3.org/1999/xlink" width="21.178" height="18" viewBox="0 0 21.178 18">
  <defs>
    <linearGradient id="linear-gradient" x1="0.5" x2="0.5" y2="1" gradientUnits="objectBoundingBox">
      <stop offset="0" stop-color="#ddbd4e"/>
      <stop offset="0" stop-color="#fef29a"/>
      <stop offset="0.108" stop-color="#f6cf37"/>
      <stop offset="1" stop-color="#ba8200"/>
    </linearGradient>
  </defs>
  <g id="Group_4623" data-name="Group 4623" transform="translate(957 -211)">
    <g id="Outlined" transform="translate(-1073.652 129.385)">
      <path id="Path_18036" data-name="Path 18036" d="M116.679,96.8a.529.529,0,0,0,.752.635l3.326-1.774a7.231,7.231,0,0,0,4.394.688,7.436,7.436,0,0,0,5.264,2.206,7.323,7.323,0,0,0,3.306-.778l3.326,1.774a.529.529,0,0,0,.752-.635l-1.224-3.664a7.334,7.334,0,0,0,1.251-4.108,7.419,7.419,0,0,0-8.494-7.321,7.4,7.4,0,0,0-11.43,9.31Zm20.088-5.655a6.3,6.3,0,0,1-1.207,3.713.529.529,0,0,0-.074.476l.887,2.657-2.4-1.281a.53.53,0,0,0-.5,0,6.281,6.281,0,0,1-3.054.784,6.372,6.372,0,0,1-4.016-1.442,7.394,7.394,0,0,0,3.747-11.247,6.344,6.344,0,0,1,6.621,6.337Zm-19.056-2.117a6.352,6.352,0,1,1,3.3,5.57.529.529,0,0,0-.5,0l-2.4,1.281.887-2.659a.53.53,0,0,0-.074-.476,6.306,6.306,0,0,1-1.205-3.713Z" transform="translate(0 0)" fill="#000"/>
      <path id="Path_18037" data-name="Path 18037" d="M233.861,154.325a.529.529,0,0,0,.529-.529,1.06,1.06,0,1,1,1.463.979,1.545,1.545,0,0,0-.933,1.446v.752a.529.529,0,0,0,1.059,0v-.752a.5.5,0,0,1,.279-.467,2.117,2.117,0,1,0-2.926-1.958.529.529,0,0,0,.529.529Z" transform="translate(-111.386 -66.885)" fill="#000"/>
      <path id="Path_18038" data-name="Path 18038" d="M269.393,292.2a.529.529,0,1,1-.529-.529.529.529,0,0,1,.529.529" transform="translate(-144.8 -200.521)" fill="#000"/>
    </g>
    <g id="FIlled" transform="translate(-1073.652 129.316)" opacity="0">
      <path id="Path_18034" data-name="Path 18034" d="M337.056,139.97a7.327,7.327,0,0,0,1.249-4.108,7.42,7.42,0,0,0-7.153-7.406,8.465,8.465,0,0,1-4.495,13.49,7.408,7.408,0,0,0,7.539.551l3.33,1.773a.529.529,0,0,0,.752-.635Z" transform="translate(-200.476 -44.649)" fill="#000"/>
      <path id="Path_18035" data-name="Path 18035" d="M116.679,96.869a.529.529,0,0,0,.752.635l3.327-1.775A7.45,7.45,0,1,0,117.9,93.2Zm7.385-4.6a.53.53,0,1,1,.374-.155.529.529,0,0,1-.374.155ZM122.7,85.355a2.118,2.118,0,1,1,2.171,3.58.5.5,0,0,0-.28.467v.752a.529.529,0,0,1-1.059,0V89.4a1.545,1.545,0,0,1,.933-1.446,1.059,1.059,0,1,0-1.463-.979.529.529,0,0,1-1.059,0,2.113,2.113,0,0,1,.757-1.622Z" fill="#000"/>
    </g>
  </g>
</svg>
