<svg xmlns="http://www.w3.org/2000/svg" xmlns:xlink="http://www.w3.org/1999/xlink" width="19.996" height="18" viewBox="0 0 19.996 18">
  <defs>
    <linearGradient id="linear-gradient" x1="0.5" x2="0.5" y2="1" gradientUnits="objectBoundingBox">
      <stop offset="0" stop-color="#ddbd4e"/>
      <stop offset="0" stop-color="#fef29a"/>
      <stop offset="0.108" stop-color="#f6cf37"/>
      <stop offset="1" stop-color="#ba8200"/>
    </linearGradient>
  </defs>
  <g id="Group_4627" data-name="Group 4627" transform="translate(993 -457)">
    <g id="Outlined" transform="translate(-1115.908 381.49)" opacity="0">
      <path id="Path_18046" data-name="Path 18046" d="M142.365,82.551,139.323,77.4a3.868,3.868,0,0,0-3.312-1.892H129.8a3.868,3.868,0,0,0-3.312,1.892l-3.042,5.149a3.851,3.851,0,0,0,0,3.919l3.042,5.149A3.868,3.868,0,0,0,129.8,93.51h6.209a3.868,3.868,0,0,0,3.316-1.892l3.042-5.149a3.851,3.851,0,0,0,0-3.919Zm-1.326,3.135L138,90.834h0a2.321,2.321,0,0,1-1.989,1.135H129.8a2.321,2.321,0,0,1-1.989-1.135l-3.042-5.149a2.311,2.311,0,0,1,0-2.351l3.042-5.149A2.321,2.321,0,0,1,129.8,77.05h6.21A2.321,2.321,0,0,1,138,78.186l3.042,5.149a2.311,2.311,0,0,1,0,2.351Z" fill="#000"/>
      <path id="Path_18047" data-name="Path 18047" d="M249.621,175a4.626,4.626,0,1,0,3.266,1.355A4.621,4.621,0,0,0,249.621,175Zm0,7.7a3.081,3.081,0,1,1,2.178-.9A3.08,3.08,0,0,1,249.621,182.7Z" transform="translate(-116.718 -95.111)" fill="#000"/>
    </g>
    <g id="Filled" transform="translate(-1115.838 381.49)">
      <path id="Path_18048" data-name="Path 18048" d="M286.162,213.081A3.081,3.081,0,1,1,283.081,210a3.081,3.081,0,0,1,3.081,3.081" transform="translate(-150.245 -128.571)" fill="#000"/>
      <path id="Path_18049" data-name="Path 18049" d="M142.3,82.551,139.256,77.4a3.868,3.868,0,0,0-3.312-1.892h-6.213a3.868,3.868,0,0,0-3.312,1.892l-3.045,5.149a3.851,3.851,0,0,0,0,3.919l3.042,5.149a3.868,3.868,0,0,0,3.316,1.892h6.209a3.868,3.868,0,0,0,3.316-1.892l3.042-5.149h0a3.851,3.851,0,0,0,0-3.919Zm-9.463,6.581a4.626,4.626,0,1,1,3.266-1.355A4.621,4.621,0,0,1,132.836,89.131Z" fill="#000"/>
    </g>
  </g>
</svg>
