<svg xmlns="http://www.w3.org/2000/svg" xmlns:xlink="http://www.w3.org/1999/xlink" width="18.004" height="18" viewBox="0 0 18.004 18">
  <defs>
    <linearGradient id="linear-gradient" x1="0.5" x2="0.5" y2="1" gradientUnits="objectBoundingBox">
      <stop offset="0" stop-color="#ddbd4e"/>
      <stop offset="0" stop-color="#fef29a"/>
      <stop offset="0.108" stop-color="#f6cf37"/>
      <stop offset="1" stop-color="#ba8200"/>
    </linearGradient>
  </defs>
  <g id="Group_4622" data-name="Group 4622" transform="translate(969 -131)">
    <path id="Outlined" d="M125.96,70.59h9.694a3.466,3.466,0,0,0,3.462-3.462h.692a.692.692,0,0,0,.692-.692V62.281a.692.692,0,0,0-.692-.692h-.692V60.9a3.462,3.462,0,0,0-2.222-3.223l-1.967-3.934a2.078,2.078,0,0,0-3.081-.751L125.7,57.46a3.456,3.456,0,0,0-3.2,3.436v6.232a3.467,3.467,0,0,0,3.462,3.462Zm13.156-4.847h-2.77a1.385,1.385,0,1,1,0-2.77h2.77ZM132.663,54.11a.693.693,0,0,1,1.026.251l1.538,3.073H128.09Zm-8.78,6.786a2.077,2.077,0,0,1,2.077-2.077h9.694a2.077,2.077,0,0,1,2.077,2.077v.692h-1.385a2.77,2.77,0,0,0,0,5.54h1.385a2.077,2.077,0,0,1-2.077,2.077H125.96a2.077,2.077,0,0,1-2.077-2.077Z" transform="translate(-1091.498 78.41)" fill="#000"/>
    <path id="Filled" d="M125.959,70.59h9.694a3.462,3.462,0,0,0,3.462-3.462h.692a.692.692,0,0,0,.692-.692V62.281a.692.692,0,0,0-.692-.692h-.692V60.9a3.457,3.457,0,0,0-2.222-3.223l-1.967-3.933a2.078,2.078,0,0,0-3.081-.751L125.7,57.46a3.453,3.453,0,0,0-3.2,3.436v6.232a3.462,3.462,0,0,0,3.462,3.462Zm13.156-4.847h-2.77a1.385,1.385,0,1,1,0-2.77h2.77ZM132.662,54.11a.693.693,0,0,1,1.026.251l1.538,3.073h-7.137Z" transform="translate(-1091.497 78.41)" opacity="0" fill="#000"/>
  </g>
</svg>
