<svg xmlns="http://www.w3.org/2000/svg" xmlns:xlink="http://www.w3.org/1999/xlink" width="80" height="80" viewBox="0 0 80 80">
  <defs>
    <linearGradient id="linear-gradient" x1="0.5" y1="1" x2="0.5" gradientUnits="objectBoundingBox">
      <stop offset="0" stop-color="#a5e5ba"/>
      <stop offset="1" stop-color="#fff1ff"/>
    </linearGradient>
    <linearGradient id="linear-gradient-2" x1="0.13" y1="2.547" x2="1.001" y2="0.495" gradientUnits="objectBoundingBox">
      <stop offset="0" stop-color="#20bf55"/>
      <stop offset="1" stop-color="#01baef"/>
    </linearGradient>
  </defs>
  <g id="Group_3296" data-name="Group 3296" transform="translate(-167 -302)">
    <g id="Group_3281" data-name="Group 3281" transform="translate(167 302)">
      <circle id="Ellipse_173" data-name="Ellipse 173" cx="40" cy="40" r="40" fill="url(#linear-gradient)"/>
    </g>
    <g id="reload" transform="translate(184 317.8)">
      <path id="XMLID_63_" d="M10.433,21.033a12.636,12.636,0,0,1,12.35-9.5,12.916,12.916,0,0,1,12.35,9.5h6.333a18.94,18.94,0,0,0-37.367,0Z" transform="translate(0.217 0)" fill="url(#linear-gradient-2)"/>
      <path id="XMLID_60_" d="M24.667,6.2V18.867H12" transform="translate(17.333 2.167)" fill="url(#linear-gradient-2)"/>
      <path id="Path_5018" data-name="Path 5018" d="M35.35,12.2c-1.583,6.333-6.333,9.5-12.35,9.5a13.187,13.187,0,0,1-10.45-5.383L16.667,12.2H4V24.867L8.117,20.75A18.912,18.912,0,0,0,23,28.033,18.486,18.486,0,0,0,41.683,12.2H35.35Z" transform="translate(0 15.167)" fill="url(#linear-gradient-2)"/>
    </g>
  </g>
</svg>
