<svg id="Group_4057" data-name="Group 4057" xmlns="http://www.w3.org/2000/svg" xmlns:xlink="http://www.w3.org/1999/xlink" width="24" height="24" viewBox="0 0 24 24">
  <defs>
    <linearGradient id="linear-gradient" x1="0.5" x2="0.5" y2="1" gradientUnits="objectBoundingBox">
      <stop offset="0" stop-color="#ddbd4e"/>
      <stop offset="0" stop-color="#fef29a"/>
      <stop offset="0.108" stop-color="#f6cf37"/>
      <stop offset="1" stop-color="#ba8200"/>
    </linearGradient>
  </defs>
  <path id="Path_16955" data-name="Path 16955" d="M0,0H24V24H0Z" fill="none"/>
  <path id="Path_16956" data-name="Path 16956" d="M12,22A10,10,0,1,1,22,12,10,10,0,0,1,12,22Zm0-2a8,8,0,1,0-8-8A8,8,0,0,0,12,20ZM10.622,8.415,15.5,11.667a.4.4,0,0,1,0,.666l-4.88,3.252A.4.4,0,0,1,10,15.253V8.747a.4.4,0,0,1,.622-.332Z" fill="url(#linear-gradient)"/>
</svg>
