<svg xmlns="http://www.w3.org/2000/svg" width="24.037" height="16.901" viewBox="0 0 24.037 16.901"><defs><style>.a{fill:#fff;}</style></defs><path class="a" d="M38.468,66.644a3.02,3.02,0,0,0-2.125-2.139C34.468,64,26.951,64,26.951,64s-7.516,0-9.391.506a3.02,3.02,0,0,0-2.125,2.139,34.006,34.006,0,0,0,0,11.646,2.975,2.975,0,0,0,2.125,2.1c1.875.506,9.391.506,9.391.506s7.516,0,9.391-.506a2.975,2.975,0,0,0,2.125-2.1,34.006,34.006,0,0,0,0-11.646Zm-13.974,9.4V68.894l6.282,3.574Z" transform="translate(-14.933 -64)"/></svg>