<svg xmlns="http://www.w3.org/2000/svg" width="72" height="72" viewBox="0 0 72 72">
  <g id="Group_2562" data-name="Group 2562" transform="translate(-171 -99)">
    <g id="Ellipse_42" data-name="Ellipse 42" transform="translate(171 99)" fill="#fff" stroke="#e53935" stroke-width="5">
      <circle cx="36" cy="36" r="36" stroke="none"/>
      <circle cx="36" cy="36" r="33.5" fill="none"/>
    </g>
    <g id="Layer_5" data-name="Layer 5" transform="translate(187.361 115.42)">
      <path id="Path_4732" data-name="Path 4732" d="M10.125,30.52A1.477,1.477,0,0,1,9.071,28l18.9-18.9a1.484,1.484,0,1,1,2.093,2.093l-18.9,18.9A1.484,1.484,0,0,1,10.125,30.52Z" fill="#e53935"/>
      <path id="Path_4733" data-name="Path 4733" d="M28.982,30.467a1.484,1.484,0,0,1-1.039-.43l-18.9-18.9A1.484,1.484,0,0,1,11.14,9.046l18.9,18.9a1.477,1.477,0,0,1-1.054,2.524Z" transform="translate(0.024 0.053)" fill="#e53935"/>
    </g>
  </g>
</svg>
