<svg xmlns="http://www.w3.org/2000/svg" viewBox="0 0 32 40" x="0px" y="0px" fill="#fff"><title>History</title><g><path d="M26.08,31H9.92A2.92,2.92,0,0,1,7,28.08V2A1,1,0,0,1,8,1H26.08A2.92,2.92,0,0,1,29,3.92V28.08A2.92,2.92,0,0,1,26.08,31ZM9,3V28.08a.92.92,0,0,0,.92.92H26.08a.92.92,0,0,0,.92-.92V3.92A.92.92,0,0,0,26.08,3Z"/><path d="M8,15H5.92A2.92,2.92,0,0,1,3,12.08V3.92A2.92,2.92,0,0,1,5.92,1H8A1,1,0,0,1,9,2V14A1,1,0,0,1,8,15ZM5.92,3A.92.92,0,0,0,5,3.92v8.16a.92.92,0,0,0,.92.92H7V3Z"/><path d="M23,7H13a1,1,0,0,1,0-2H23a1,1,0,0,1,0,2Z"/><path d="M23,13H13a1,1,0,0,1,0-2H23a1,1,0,0,1,0,2Z"/><path d="M19,19H13a1,1,0,0,1,0-2h6a1,1,0,0,1,0,2Z"/></g></svg>