<svg xmlns="http://www.w3.org/2000/svg" data-name="Layer 1" viewBox="0 0 100 125" x="0px" y="0px" fill="#ffffff"><title>website icon</title><path d="M37.62,94.25h-.13C31,93.82,24.69,87.53,20.32,82H14.56A11,11,0,0,1,3.62,71.06V40.81A11,11,0,0,1,14.56,29.88H44.38a2,2,0,0,1,0,4H14.56a6.94,6.94,0,0,0-6.94,6.93V71.06A7,7,0,0,0,14.56,78H21.3a2,2,0,0,1,1.59.78c3.68,4.79,7.27,8.2,10.48,10a68.81,68.81,0,0,1-3.75-8.09A2,2,0,0,1,31.49,78H56.56a7,7,0,0,0,6.94-6.94V57.5a2,2,0,0,1,4,0V71.06A11,11,0,0,1,56.56,82H34.47a95.94,95.94,0,0,0,4.85,9.21,2,2,0,0,1-1.71,3Z"/><path d="M95,64.06a2,2,0,0,1-.85-.19L75.24,55A29.09,29.09,0,0,1,65,54.14C54.83,51.49,48,43.82,48,35.06a16,16,0,0,1,.41-3.63C50.5,21.92,60.63,15,72.5,15,86,15,97,24,97,35.06c0,5.72-3,11.18-8.17,15l7.8,10.88A2,2,0,0,1,95,64.06ZM75.59,50.94a2,2,0,0,1,.85.19L88.9,57l-4.53-6.32A2,2,0,0,1,85,47.79c5.11-3.08,8-7.72,8-12.73C93,26.2,83.8,19,72.5,19,62.5,19,54,24.6,52.31,32.31A12.12,12.12,0,0,0,52,35.06c0,6.91,5.63,13,14,15.21a25.22,25.22,0,0,0,9.36.67Z"/><path d="M41.5,47H14.25a2,2,0,0,1,0-4H41.5a2,2,0,0,1,0,4Z"/><path d="M50.5,57.75H14.25a2,2,0,0,1,0-4H50.5a2,2,0,0,1,0,4Z"/><path d="M55.5,69.5H14.25a2,2,0,0,1,0-4H55.5a2,2,0,0,1,0,4Z"/></svg>