<svg xmlns="http://www.w3.org/2000/svg" width="20.506" height="22" viewBox="0 0 20.506 22">
  <g id="noun-notification-4556629" transform="translate(-139.999 -57.213)">
    <path id="Path_20870" data-name="Path 20870" d="M218.318,61.6A5.875,5.875,0,0,0,216,66.875l.533,5.489h0a2.565,2.565,0,0,0,2.017,4.657l1.7-.456h0a3.38,3.38,0,0,0,3.358,2.647,3.344,3.344,0,0,0,3.42-3.255,3.1,3.1,0,0,0-.229-1.147l3.314-.888h0a2.565,2.565,0,0,0-.582-5.044l-2.283-5.019h0a5.872,5.872,0,0,0-4.644-3.412v-.005a2.565,2.565,0,1,0-4.283,1.158Zm7,14.358a1.722,1.722,0,0,1-3.4.161l3.2-.855h0a1.394,1.394,0,0,1,.2.694Zm.374-11.387,2.533,5.579a.855.855,0,0,0,1,.472.855.855,0,0,1,.443,1.652l-11.558,3.1a.855.855,0,1,1-.443-1.652.855.855,0,0,0,.629-.908l-.586-6.1a4.177,4.177,0,0,1,3.085-4.451,4.232,4.232,0,0,1,1.094-.145,4.178,4.178,0,0,1,3.8,2.457ZM219.7,59.04a.855.855,0,0,1,1.167.313.856.856,0,0,1-.465,1.237.855.855,0,0,1-.7-1.55Z" transform="translate(-71.637 0)" fill="#433b24"/>
    <path id="Path_20871" data-name="Path 20871" d="M420.547,84.852a8.631,8.631,0,0,1,4.663,4.4.855.855,0,0,0,1.554-.71,10.357,10.357,0,0,0-5.6-5.281.855.855,0,0,0-.621,1.594Z" transform="translate(-266.323 -24.721)" fill="#433b24"/>
    <path id="Path_20872" data-name="Path 20872" d="M140.854,130.893a.855.855,0,0,0,.855-.855,8.472,8.472,0,0,1,2.682-6.218.855.855,0,1,0-1.174-1.243A10.165,10.165,0,0,0,140,130.038a.855.855,0,0,0,.855.855Z" transform="translate(0 -61.94)" fill="#433b24"/>
  </g>
</svg>
