<svg xmlns="http://www.w3.org/2000/svg" xmlns:xlink="http://www.w3.org/1999/xlink" width="27.998" height="22" viewBox="0 0 27.998 22">
  <defs>
    <linearGradient id="linear-gradient" x1="0.5" x2="0.5" y2="1" gradientUnits="objectBoundingBox">
      <stop offset="0" stop-color="#ddbd4e"/>
      <stop offset="0" stop-color="#fef29a"/>
      <stop offset="0.108" stop-color="#f6cf37"/>
      <stop offset="1" stop-color="#ba8200"/>
    </linearGradient>
  </defs>
  <path id="comments" d="M22,264a6.309,6.309,0,0,1-1.469,4.015,9.923,9.923,0,0,1-4.007,2.914A14.074,14.074,0,0,1,11,272a15.691,15.691,0,0,1-2.75-.25,13.139,13.139,0,0,1-4.343,2,13.141,13.141,0,0,1-1.344.25H2.515a.488.488,0,0,1-.32-.125.516.516,0,0,1-.18-.328.319.319,0,0,1-.016-.1.619.619,0,0,1,.008-.1.331.331,0,0,1,.031-.094l.039-.078.055-.086.062-.078.07-.078.062-.07q.078-.094.359-.391t.406-.461q.125-.164.352-.453a3.955,3.955,0,0,0,.391-.6q.164-.313.32-.687A9.129,9.129,0,0,1,1.109,267.5,6.137,6.137,0,0,1,0,264a6.309,6.309,0,0,1,1.469-4.015,9.922,9.922,0,0,1,4.007-2.914A14.074,14.074,0,0,1,11,256a14.074,14.074,0,0,1,5.523,1.07,9.922,9.922,0,0,1,4.007,2.914A6.309,6.309,0,0,1,22,264Zm6,4a6.125,6.125,0,0,1-1.109,3.508,9.165,9.165,0,0,1-3.047,2.758q.156.375.32.687a3.952,3.952,0,0,0,.391.6q.227.289.352.453t.406.461q.281.3.359.391.016.016.062.07t.07.078a.664.664,0,0,1,.062.078.707.707,0,0,1,.055.086l.039.078.031.094.008.1-.016.1a.579.579,0,0,1-.2.344.471.471,0,0,1-.344.109,12.481,12.481,0,0,1-5.687-2.25A15.694,15.694,0,0,1,17,276a13.127,13.127,0,0,1-7.374-2.062Q10.53,274,11,274a16.5,16.5,0,0,0,4.828-.7,13.83,13.83,0,0,0,4.125-2.016,10.454,10.454,0,0,0,3-3.312,8.039,8.039,0,0,0,.687-6.343,9.257,9.257,0,0,1,3.187,2.781A6.142,6.142,0,0,1,28,268Z" transform="translate(0 -256)" fill="url(#linear-gradient)"/>
</svg>
