<svg xmlns="http://www.w3.org/2000/svg" xmlns:xlink="http://www.w3.org/1999/xlink" width="40" height="40" viewBox="0 0 40 40">
  <defs>
    <linearGradient id="linear-gradient" x1="0.5" x2="0.5" y2="1" gradientUnits="objectBoundingBox">
      <stop offset="0" stop-color="#5cf777"/>
      <stop offset="1" stop-color="#0dbc29"/>
    </linearGradient>
  </defs>
  <g id="Group_3095" data-name="Group 3095" transform="translate(-67 -1104)">
    <g id="Group_3305" data-name="Group 3305">
      <g id="ios-message" transform="translate(67 1104)">
        <rect id="Rectangle_1348" data-name="Rectangle 1348" width="40" height="40" rx="12" fill="url(#linear-gradient)"/>
        <path id="Path_5018" data-name="Path 5018" d="M16.6,7.17c-6.131,0-11.1,4.067-11.1,9.082a8.828,8.828,0,0,0,5.046,7.611.5.5,0,0,1,.252.621,4.541,4.541,0,0,1-1.4,1.842.252.252,0,0,0,.2.444,9.042,9.042,0,0,0,3.668-1.514.989.989,0,0,1,.775-.179,13.5,13.5,0,0,0,2.561.252c6.131,0,11.1-4.067,11.1-9.082S22.735,7.17,16.6,7.17Z" transform="translate(3.567 3.149)" fill="#fefefe"/>
      </g>
    </g>
  </g>
</svg>
