<svg xmlns="http://www.w3.org/2000/svg" xmlns:xlink="http://www.w3.org/1999/xlink" width="40" height="40" viewBox="0 0 40 40">
  <defs>
    <linearGradient id="linear-gradient" x1="0.5" x2="0.5" y2="1" gradientUnits="objectBoundingBox">
      <stop offset="0" stop-color="#cc2b5e"/>
      <stop offset="1" stop-color="#c779d0"/>
    </linearGradient>
  </defs>
  <g id="Group_3570" data-name="Group 3570" transform="translate(-24 -920)">
    <g id="Group_3095" data-name="Group 3095" transform="translate(-43 -184)">
      <rect id="Rectangle_1286" data-name="Rectangle 1286" width="40" height="40" rx="12" transform="translate(67 1104)" fill="url(#linear-gradient)"/>
    </g>
    <g id="favorite_white_24dp" transform="translate(32 929)">
      <path id="Path_5019" data-name="Path 5019" d="M0,0H24V24H0Z" fill="none"/>
      <path id="Path_5020" data-name="Path 5020" d="M12,21.35l-1.45-1.32C5.4,15.36,2,12.28,2,8.5A5.447,5.447,0,0,1,7.5,3,5.988,5.988,0,0,1,12,5.09,5.988,5.988,0,0,1,16.5,3,5.447,5.447,0,0,1,22,8.5c0,3.78-3.4,6.86-8.55,11.54Z" fill="#fff"/>
    </g>
  </g>
</svg>
