<svg xmlns="http://www.w3.org/2000/svg" xmlns:xlink="http://www.w3.org/1999/xlink" width="20.011" height="18" viewBox="0 0 20.011 18">
  <defs>
    <linearGradient id="linear-gradient" x1="0.5" x2="0.5" y2="1" gradientUnits="objectBoundingBox">
      <stop offset="0" stop-color="#ddbd4e"/>
      <stop offset="0" stop-color="#fef29a"/>
      <stop offset="0.108" stop-color="#f6cf37"/>
      <stop offset="1" stop-color="#ba8200"/>
    </linearGradient>
  </defs>
  <g id="messages" transform="translate(-64 -83.293)">
    <path id="Path_17622" data-name="Path 17622" d="M220.136,171.916l-.914-2.743a.607.607,0,0,1,.04-.471,7.151,7.151,0,0,0-4.066-10.046,8.531,8.531,0,0,1,.5,4.846,8.385,8.385,0,0,1-6.732,6.666,8.759,8.759,0,0,1-1.323.128,7.145,7.145,0,0,0,8.491,1.521.606.606,0,0,1,.468-.039l2.753.918A.617.617,0,0,0,220.136,171.916Z" transform="translate(-136.157 -71.436)" fill="url(#linear-gradient)"/>
    <path id="Path_17623" data-name="Path 17623" d="M69.9,83.42a7.15,7.15,0,0,0-4.99,10.29.607.607,0,0,1,.04.471l-.914,2.743a.617.617,0,0,0,.78.78l2.753-.918a.607.607,0,0,1,.469.039A7.157,7.157,0,1,0,69.9,83.42Zm1.821,9.252H68.162a.635.635,0,1,1,0-1.27h3.556a.635.635,0,1,1,0,1.27Zm2.54-2.54h-6.1a.635.635,0,1,1,0-1.27h6.1a.635.635,0,0,1,0,1.27Z" transform="translate(0)" fill="url(#linear-gradient)"/>
  </g>
</svg>
