<svg id="Group_5456" data-name="Group 5456" xmlns="http://www.w3.org/2000/svg" xmlns:xlink="http://www.w3.org/1999/xlink" width="18" height="18" viewBox="0 0 18 18">
  <defs>
    <linearGradient id="linear-gradient" x1="0.5" x2="0.5" y2="1" gradientUnits="objectBoundingBox">
      <stop offset="0" stop-color="#ddbd4e"/>
      <stop offset="0" stop-color="#fef29a"/>
      <stop offset="0.108" stop-color="#f6cf37"/>
      <stop offset="1" stop-color="#ba8200"/>
    </linearGradient>
  </defs>
  <path id="Path_16953" data-name="Path 16953" d="M0,0H18V18H0Z" fill="none"/>
  <path id="Path_16954" data-name="Path 16954" d="M9.5,17A7.5,7.5,0,1,1,17,9.5,7.5,7.5,0,0,1,9.5,17ZM7.783,15.25a13.425,13.425,0,0,1-1.262-5H3.546a6.006,6.006,0,0,0,4.236,5Zm.24-5A11.936,11.936,0,0,0,9.5,15.314a11.929,11.929,0,0,0,1.477-5.064H8.023Zm7.431,0H12.48a13.425,13.425,0,0,1-1.262,5A6.006,6.006,0,0,0,15.453,10.25ZM3.546,8.75H6.52a13.425,13.425,0,0,1,1.262-5,6.006,6.006,0,0,0-4.236,5Zm4.477,0h2.953A11.929,11.929,0,0,0,9.5,3.686,11.929,11.929,0,0,0,8.022,8.75Zm3.194-5a13.425,13.425,0,0,1,1.262,5h2.974a6.006,6.006,0,0,0-4.236-5Z" transform="translate(-0.5 -0.5)" fill="url(#linear-gradient)"/>
</svg>
