<svg id="logout" xmlns="http://www.w3.org/2000/svg" width="28" height="28" viewBox="0 0 28 28">
  <rect id="Rectangle_1450" data-name="Rectangle 1450" width="28" height="28" fill="rgba(255,255,255,0)"/>
  <path id="Path_16929" data-name="Path 16929" d="M22.333,12H13" transform="translate(2.167 2)" fill="none" stroke="#ebd4af" stroke-linecap="round" stroke-linejoin="round" stroke-width="2"/>
  <path id="Path_16930" data-name="Path 16930" d="M18,16l3.4-3.4h0a.144.144,0,0,0,0-.2h0L18,9" transform="translate(3 1.5)" fill="none" stroke="#ebd4af" stroke-linecap="round" stroke-linejoin="round" stroke-width="2"/>
  <path id="Path_16931" data-name="Path 16931" d="M18.167,5.333V4.75h0A1.75,1.75,0,0,0,16.417,3H5.333A2.333,2.333,0,0,0,3,5.333V21.667A2.333,2.333,0,0,0,5.333,24H16.417a1.75,1.75,0,0,0,1.75-1.75h0v-.583" transform="translate(0.5 0.5)" fill="none" stroke="#ebd4af" stroke-linecap="round" stroke-linejoin="round" stroke-width="2"/>
</svg>
