<svg xmlns="http://www.w3.org/2000/svg" xmlns:xlink="http://www.w3.org/1999/xlink" width="18.881" height="18" viewBox="0 0 18.881 18">
  <defs>
    <linearGradient id="linear-gradient" x1="0.5" x2="0.5" y2="1" gradientUnits="objectBoundingBox">
      <stop offset="0" stop-color="#ddbd4e"/>
      <stop offset="0" stop-color="#fef29a"/>
      <stop offset="0.108" stop-color="#f6cf37"/>
      <stop offset="1" stop-color="#ba8200"/>
    </linearGradient>
  </defs>
  <path id="star-3" d="M20.866,9.667a.884.884,0,0,0-.755-1.038l-5.377-.755L12.282,2.969a.736.736,0,0,0-.377-.377.954.954,0,0,0-1.321.377L8.226,7.874l-5.377.755a.57.57,0,0,0-.566.283.912.912,0,0,0,0,1.321l3.868,3.773-.943,5.377a1.2,1.2,0,0,0,.094.566.954.954,0,0,0,1.321.377l4.811-2.547,4.811,2.547a.707.707,0,0,0,.472.094H16.9a.978.978,0,0,0,.755-1.132l-.943-5.377,3.868-3.773A.519.519,0,0,0,20.866,9.667Z" transform="translate(-2 -2.459)" fill="url(#linear-gradient)"/>
</svg>
