<svg xmlns="http://www.w3.org/2000/svg" xmlns:xlink="http://www.w3.org/1999/xlink" width="15.38" height="18" viewBox="0 0 15.38 18">
  <defs>
    <linearGradient id="linear-gradient" x1="0.5" x2="0.5" y2="1" gradientUnits="objectBoundingBox">
      <stop offset="0" stop-color="#ddbd4e"/>
      <stop offset="0" stop-color="#fef29a"/>
      <stop offset="0.108" stop-color="#f6cf37"/>
      <stop offset="1" stop-color="#ba8200"/>
    </linearGradient>
  </defs>
  <path id="lock-4" d="M11.69,3.25a3.845,3.845,0,0,1,3.8,3.294.647.647,0,1,0,1.282-.179A5.127,5.127,0,0,0,6.563,7.1V8.377H4.641A.641.641,0,0,0,4,9.018V19.271a.641.641,0,0,0,.641.641h14.1a.641.641,0,0,0,.641-.641V9.018a.641.641,0,0,0-.641-.641H7.845V7.1A3.845,3.845,0,0,1,11.69,3.25Zm.641,12.061v.756a.641.641,0,1,1-1.282,0v-.756a1.923,1.923,0,1,1,1.282,0Z" transform="translate(-4 -1.912)" fill="url(#linear-gradient)"/>
</svg>
