<svg xmlns="http://www.w3.org/2000/svg" width="17.332" height="16" viewBox="0 0 17.332 16">
  <path id="comment-2" d="M1,5.095A3.1,3.1,0,0,1,4.095,2H15.237a3.1,3.1,0,0,1,3.095,3.095v6.19a3.1,3.1,0,0,1-3.095,3.095H10.518L6.726,17.7a1.213,1.213,0,0,1-2.012-.913v-2.4H4.095A3.1,3.1,0,0,1,1,11.285ZM4.095,3.238A1.857,1.857,0,0,0,2.238,5.095v6.19a1.857,1.857,0,0,0,1.857,1.857H5.952V16.73l4.1-3.588h5.185a1.857,1.857,0,0,0,1.857-1.857V5.095a1.857,1.857,0,0,0-1.857-1.857Z" transform="translate(-1 -2)" fill="#aaa"/>
</svg>
