<svg id="favorite_border-24px-2" xmlns="http://www.w3.org/2000/svg" width="17" height="17" viewBox="0 0 17 17">
  <path id="Path_4914" data-name="Path 4914" d="M0,0H17V17H0Z" fill="none"/>
  <path id="Path_4915" data-name="Path 4915" d="M14.325,3A5.09,5.09,0,0,0,10.5,4.776,5.09,5.09,0,0,0,6.675,3,4.63,4.63,0,0,0,2,7.675c0,3.213,2.89,5.831,7.267,9.809L10.5,18.6l1.232-1.122C16.11,13.506,19,10.888,19,7.675A4.63,4.63,0,0,0,14.325,3Zm-3.74,13.217L10.5,16.3l-.085-.085C6.369,12.554,3.7,10.131,3.7,7.675A2.905,2.905,0,0,1,6.675,4.7,3.323,3.323,0,0,1,9.709,6.706H11.3A3.3,3.3,0,0,1,14.325,4.7,2.905,2.905,0,0,1,17.3,7.675C17.3,10.131,14.631,12.554,10.585,16.217Z" transform="translate(-2 -2.175)" fill="#aaa"/>
</svg>
