<svg xmlns="http://www.w3.org/2000/svg" xmlns:xlink="http://www.w3.org/1999/xlink" width="40.033" height="40" viewBox="0 0 40.033 40">
  <defs>
    <linearGradient id="linear-gradient" x1="0.5" x2="0.5" y2="1" gradientUnits="objectBoundingBox">
      <stop offset="0" stop-color="#ffeb3c"/>
      <stop offset="1" stop-color="#efcd40"/>
    </linearGradient>
  </defs>
  <g id="Group_5404" data-name="Group 5404" transform="translate(-167 -237)">
    <path id="Path_17660" data-name="Path 17660" d="M140.529,70.148a19.975,19.975,0,0,0,12.53,34.054,21.357,21.357,0,0,0,6.551-.52,19.794,19.794,0,0,0,9.254-5.251,20.018,20.018,0,0,0-28.335-28.283Zm10.762,21.888Z" transform="translate(32.32 172.74)" fill="url(#linear-gradient)"/>
    <path id="check-2" d="M21.1,7.261a1.174,1.174,0,0,0-1.667,0l-8.746,8.758L7.011,12.333a1.2,1.2,0,0,0-1.667,1.726l4.508,4.508a1.174,1.174,0,0,0,1.667,0l9.58-9.58a1.174,1.174,0,0,0,0-1.726Z" transform="translate(174.022 244.086)" fill="#433b24"/>
  </g>
</svg>
